<svg width="16" height="17" viewBox="0 0 16 17" fill="none" xmlns="http://www.w3.org/2000/svg">
<mask id="path-1-outside-1_2564_39107" maskUnits="userSpaceOnUse" x="0.332031" y="1.1499" width="16" height="16" fill="black">
<rect fill="white" x="0.332031" y="1.1499" width="16" height="16"/>
<path fill-rule="evenodd" clip-rule="evenodd" d="M9.42279 3.05753C9.42213 3.05084 9.42179 3.0475 9.42148 3.04461C9.36786 2.53814 8.94216 2.15288 8.43287 2.14992C8.42995 2.1499 8.4266 2.1499 8.41988 2.1499H7.57743C7.57079 2.1499 7.56748 2.1499 7.5646 2.14992C7.05526 2.15285 6.6295 2.53815 6.5759 3.04468C6.5756 3.04754 6.57527 3.05084 6.57461 3.05744C6.57336 3.0699 6.57274 3.07614 6.57229 3.08033C6.48703 3.86592 5.56721 4.24692 4.95143 3.75171C4.94815 3.74907 4.94326 3.74507 4.9335 3.73708C4.92825 3.73279 4.92563 3.73064 4.92336 3.72881C4.52732 3.40861 3.9539 3.43721 3.59168 3.79523C3.58961 3.79728 3.58723 3.79966 3.58247 3.80441L2.98692 4.39996C2.98209 4.40479 2.97968 4.4072 2.9776 4.40931C2.61966 4.77151 2.59106 5.34484 2.91118 5.74086C2.91305 5.74317 2.91521 5.74582 2.91955 5.75111C2.92769 5.76107 2.93177 5.76605 2.93447 5.76941C3.42945 6.38515 3.04856 7.30469 2.26316 7.39008C2.25887 7.39055 2.25249 7.39119 2.23973 7.39246C2.23298 7.39314 2.2296 7.39348 2.22667 7.39379C1.72026 7.44744 1.33505 7.8731 1.33205 8.38234C1.33203 8.38528 1.33203 8.38867 1.33203 8.39547L1.33203 9.23775C1.33203 9.24447 1.33203 9.24782 1.33205 9.25073C1.33501 9.76003 1.72027 10.1857 2.22674 10.2394C2.22963 10.2397 2.23297 10.24 2.23965 10.2407C2.25227 10.2419 2.25857 10.2426 2.26282 10.243C3.04831 10.3283 3.42925 11.248 2.93416 11.8638C2.93148 11.8671 2.92747 11.872 2.91943 11.8818C2.91517 11.887 2.91304 11.8896 2.91121 11.8919C2.59101 12.288 2.61961 12.8614 2.97763 13.2236C2.97968 13.2257 2.98206 13.228 2.98681 13.2328L3.58244 13.8284C3.5872 13.8332 3.58958 13.8356 3.59165 13.8376C3.95387 14.1956 4.52729 14.2242 4.92333 13.904C4.9256 13.9022 4.92821 13.9001 4.93342 13.8958C4.94325 13.8878 4.94816 13.8837 4.95149 13.8811C5.56725 13.386 6.48691 13.7669 6.57224 14.5524C6.57271 14.5566 6.57334 14.563 6.5746 14.5756C6.57527 14.5823 6.5756 14.5856 6.57591 14.5885C6.62954 15.095 7.05524 15.4802 7.56452 15.4832C7.56744 15.4832 7.5708 15.4832 7.57753 15.4832H8.41979C8.42659 15.4832 8.42999 15.4832 8.43294 15.4832C8.94217 15.4802 9.36782 15.095 9.42148 14.5886C9.42179 14.5857 9.42213 14.5823 9.42281 14.5754C9.42408 14.5627 9.42472 14.5564 9.42518 14.5522C9.5105 13.7667 10.4302 13.3857 11.0459 13.8808C11.0493 13.8835 11.0542 13.8875 11.064 13.8955C11.0692 13.8998 11.0718 13.9019 11.074 13.9037C11.4701 14.2239 12.0435 14.1953 12.4057 13.8373C12.4078 13.8353 12.4102 13.8329 12.4149 13.8281L13.0106 13.2324C13.0153 13.2277 13.0177 13.2254 13.0197 13.2234C13.3778 12.8611 13.4064 12.2876 13.0861 11.8915C13.0843 11.8893 13.0822 11.8867 13.078 11.8816C13.0701 11.872 13.0662 11.8671 13.0635 11.8639C12.5683 11.2481 12.9493 10.3282 13.7349 10.243C13.7391 10.2425 13.7453 10.2419 13.7578 10.2407C13.7644 10.24 13.7677 10.2397 13.7706 10.2394C14.2771 10.1858 14.6624 9.76001 14.6653 9.25068C14.6654 9.2478 14.6654 9.24447 14.6654 9.23782V8.3954C14.6654 8.38867 14.6654 8.38531 14.6653 8.38239C14.6624 7.87311 14.2771 7.44741 13.7707 7.39378C13.7678 7.39348 13.7644 7.39314 13.7577 7.39247C13.7451 7.39121 13.7388 7.39058 13.7345 7.39012C12.949 7.30479 12.5681 6.38511 13.0632 5.76936C13.0659 5.76603 13.0699 5.76112 13.0779 5.7513C13.0822 5.7461 13.0843 5.7435 13.0861 5.74124C13.4063 5.34519 13.3777 4.77176 13.0197 4.40954C13.0177 4.40747 13.0153 4.4051 13.0105 4.40035L12.4149 3.8047C12.4101 3.79996 12.4078 3.79758 12.4057 3.79554C12.0435 3.43751 11.47 3.40891 11.074 3.72912C11.0717 3.73095 11.0691 3.73307 11.0639 3.73732C11.0541 3.74535 11.0492 3.74936 11.0459 3.75203C10.4302 4.24713 9.51047 3.86618 9.42515 3.08069C9.42469 3.07645 9.42406 3.07014 9.42279 3.05753Z"/>
</mask>
<path fill-rule="evenodd" clip-rule="evenodd" d="M9.42279 3.05753C9.42213 3.05084 9.42179 3.0475 9.42148 3.04461C9.36786 2.53814 8.94216 2.15288 8.43287 2.14992C8.42995 2.1499 8.4266 2.1499 8.41988 2.1499H7.57743C7.57079 2.1499 7.56748 2.1499 7.5646 2.14992C7.05526 2.15285 6.6295 2.53815 6.5759 3.04468C6.5756 3.04754 6.57527 3.05084 6.57461 3.05744C6.57336 3.0699 6.57274 3.07614 6.57229 3.08033C6.48703 3.86592 5.56721 4.24692 4.95143 3.75171C4.94815 3.74907 4.94326 3.74507 4.9335 3.73708C4.92825 3.73279 4.92563 3.73064 4.92336 3.72881C4.52732 3.40861 3.9539 3.43721 3.59168 3.79523C3.58961 3.79728 3.58723 3.79966 3.58247 3.80441L2.98692 4.39996C2.98209 4.40479 2.97968 4.4072 2.9776 4.40931C2.61966 4.77151 2.59106 5.34484 2.91118 5.74086C2.91305 5.74317 2.91521 5.74582 2.91955 5.75111C2.92769 5.76107 2.93177 5.76605 2.93447 5.76941C3.42945 6.38515 3.04856 7.30469 2.26316 7.39008C2.25887 7.39055 2.25249 7.39119 2.23973 7.39246C2.23298 7.39314 2.2296 7.39348 2.22667 7.39379C1.72026 7.44744 1.33505 7.8731 1.33205 8.38234C1.33203 8.38528 1.33203 8.38867 1.33203 8.39547L1.33203 9.23775C1.33203 9.24447 1.33203 9.24782 1.33205 9.25073C1.33501 9.76003 1.72027 10.1857 2.22674 10.2394C2.22963 10.2397 2.23297 10.24 2.23965 10.2407C2.25227 10.2419 2.25857 10.2426 2.26282 10.243C3.04831 10.3283 3.42925 11.248 2.93416 11.8638C2.93148 11.8671 2.92747 11.872 2.91943 11.8818C2.91517 11.887 2.91304 11.8896 2.91121 11.8919C2.59101 12.288 2.61961 12.8614 2.97763 13.2236C2.97968 13.2257 2.98206 13.228 2.98681 13.2328L3.58244 13.8284C3.5872 13.8332 3.58958 13.8356 3.59165 13.8376C3.95387 14.1956 4.52729 14.2242 4.92333 13.904C4.9256 13.9022 4.92821 13.9001 4.93342 13.8958C4.94325 13.8878 4.94816 13.8837 4.95149 13.8811C5.56725 13.386 6.48691 13.7669 6.57224 14.5524C6.57271 14.5566 6.57334 14.563 6.5746 14.5756C6.57527 14.5823 6.5756 14.5856 6.57591 14.5885C6.62954 15.095 7.05524 15.4802 7.56452 15.4832C7.56744 15.4832 7.5708 15.4832 7.57753 15.4832H8.41979C8.42659 15.4832 8.42999 15.4832 8.43294 15.4832C8.94217 15.4802 9.36782 15.095 9.42148 14.5886C9.42179 14.5857 9.42213 14.5823 9.42281 14.5754C9.42408 14.5627 9.42472 14.5564 9.42518 14.5522C9.5105 13.7667 10.4302 13.3857 11.0459 13.8808C11.0493 13.8835 11.0542 13.8875 11.064 13.8955C11.0692 13.8998 11.0718 13.9019 11.074 13.9037C11.4701 14.2239 12.0435 14.1953 12.4057 13.8373C12.4078 13.8353 12.4102 13.8329 12.4149 13.8281L13.0106 13.2324C13.0153 13.2277 13.0177 13.2254 13.0197 13.2234C13.3778 12.8611 13.4064 12.2876 13.0861 11.8915C13.0843 11.8893 13.0822 11.8867 13.078 11.8816C13.0701 11.872 13.0662 11.8671 13.0635 11.8639C12.5683 11.2481 12.9493 10.3282 13.7349 10.243C13.7391 10.2425 13.7453 10.2419 13.7578 10.2407C13.7644 10.24 13.7677 10.2397 13.7706 10.2394C14.2771 10.1858 14.6624 9.76001 14.6653 9.25068C14.6654 9.2478 14.6654 9.24447 14.6654 9.23782V8.3954C14.6654 8.38867 14.6654 8.38531 14.6653 8.38239C14.6624 7.87311 14.2771 7.44741 13.7707 7.39378C13.7678 7.39348 13.7644 7.39314 13.7577 7.39247C13.7451 7.39121 13.7388 7.39058 13.7345 7.39012C12.949 7.30479 12.5681 6.38511 13.0632 5.76936C13.0659 5.76603 13.0699 5.76112 13.0779 5.7513C13.0822 5.7461 13.0843 5.7435 13.0861 5.74124C13.4063 5.34519 13.3777 4.77176 13.0197 4.40954C13.0177 4.40747 13.0153 4.4051 13.0105 4.40035L12.4149 3.8047C12.4101 3.79996 12.4078 3.79758 12.4057 3.79554C12.0435 3.43751 11.47 3.40891 11.074 3.72912C11.0717 3.73095 11.0691 3.73307 11.0639 3.73732C11.0541 3.74535 11.0492 3.74936 11.0459 3.75203C10.4302 4.24713 9.51047 3.86618 9.42515 3.08069C9.42469 3.07645 9.42406 3.07014 9.42279 3.05753Z" fill="#979797"/>
<path d="M11.0459 3.75203L10.4193 2.9727L11.0459 3.75203ZM9.42515 3.08069L10.4193 2.9727L9.42515 3.08069ZM12.4149 3.8047L13.122 3.0976L12.4149 3.8047ZM12.4057 3.79554L13.1087 3.08433L12.4057 3.79554ZM11.074 3.72912L10.4453 2.95149L11.074 3.72912ZM13.0861 5.74124L13.8638 6.36996L13.0861 5.74124ZM13.0105 4.40035L12.3034 5.10745L13.0105 4.40035ZM13.0197 4.40954L12.3085 5.11252L13.0197 4.40954ZM13.7345 7.39012L13.8425 6.39596L13.7345 7.39012ZM13.0632 5.76936L12.2839 5.14275L13.0632 5.76936ZM14.6653 8.38239L13.6654 8.38822L14.6653 8.38239ZM13.7707 7.39378L13.876 6.39934L13.7707 7.39378ZM13.7706 10.2394L13.6654 9.24492L13.7706 10.2394ZM14.6653 9.25068L15.6653 9.25644L14.6653 9.25068ZM13.0635 11.8639L12.2843 12.4906L13.0635 11.8639ZM13.7349 10.243L13.6271 9.24882L13.7349 10.243ZM13.0106 13.2324L12.3035 12.5253L13.0106 13.2324ZM13.0197 13.2234L12.3085 12.5203L13.0197 13.2234ZM13.0861 11.8915L13.8637 11.2627L13.0861 11.8915ZM11.074 13.9037L10.4453 14.6814L11.074 13.9037ZM12.4149 13.8281L13.122 14.5352L12.4149 13.8281ZM12.4057 13.8373L13.1087 14.5485L12.4057 13.8373ZM9.42518 14.5522L8.43102 14.4442L9.42518 14.5522ZM11.0459 13.8808L10.4193 14.6601L11.0459 13.8808ZM8.43294 15.4832L8.42704 14.4832L8.43294 15.4832ZM9.42148 14.5886L10.4159 14.694L9.42148 14.5886ZM6.57591 14.5885L5.58147 14.6938L6.57591 14.5885ZM7.56452 15.4832L7.57035 14.4832L7.56452 15.4832ZM4.95149 13.8811L4.3249 13.1017L4.95149 13.8811ZM6.57224 14.5524L7.56639 14.4444L6.57224 14.5524ZM3.58244 13.8284L4.28954 13.1213L3.58244 13.8284ZM3.59165 13.8376L2.88868 14.5488L3.59165 13.8376ZM4.92333 13.904L4.29462 13.1264L4.92333 13.904ZM2.91121 11.8919L2.13358 11.2632L2.91121 11.8919ZM2.98681 13.2328L2.2797 13.9399L2.98681 13.2328ZM2.97763 13.2236L2.26642 13.9266L2.97763 13.2236ZM2.26282 10.243L2.37081 9.24887L2.26282 10.243ZM2.93416 11.8638L2.15483 11.2372L2.93416 11.8638ZM1.33203 9.23775H2.33203H1.33203ZM1.33205 9.25073L2.33203 9.24491L1.33205 9.25073ZM2.22674 10.2394L2.33203 9.24491L2.22674 10.2394ZM2.22667 7.39379L2.12131 6.39935L2.22667 7.39379ZM1.33203 8.39547H0.332031H1.33203ZM1.33205 8.38234L0.332066 8.37645L1.33205 8.38234ZM2.93447 5.76941L2.15508 6.39594L2.93447 5.76941ZM2.26316 7.39008L2.37125 8.38423L2.26316 7.39008ZM2.98692 4.39996L2.27981 3.69285L2.98692 4.39996ZM2.9776 4.40931L3.68888 5.11222L2.9776 4.40931ZM2.91118 5.74086L3.68888 5.11222L2.91118 5.74086ZM4.92336 3.72881L4.29465 4.50645L4.92336 3.72881ZM3.58247 3.80441L4.28957 4.51152L3.58247 3.80441ZM3.59168 3.79523L2.88871 3.08401L3.59168 3.79523ZM6.57229 3.08033L7.56645 3.18822L6.57229 3.08033ZM4.95143 3.75171L4.32474 4.53098L4.95143 3.75171ZM8.43287 2.14992L8.42704 3.1499L8.43287 2.14992ZM9.42148 3.04461L10.4159 2.93931L9.42148 3.04461ZM7.5646 2.14992L7.57035 3.1499L7.5646 2.14992ZM6.5759 3.04468L7.57035 3.1499L6.5759 3.04468ZM7.57743 3.1499H8.41988V1.1499H7.57743V3.1499ZM3.69403 5.10707L4.28957 4.51152L2.87536 3.09731L2.27981 3.69285L3.69403 5.10707ZM2.33203 9.23775V8.39547H0.332031L0.332031 9.23775H2.33203ZM4.28954 13.1213L3.69392 12.5257L2.2797 13.9399L2.87533 14.5355L4.28954 13.1213ZM8.41979 14.4832H7.57753V16.4832H8.41979V14.4832ZM12.3035 12.5253L11.7078 13.121L13.122 14.5352L13.7178 13.9395L12.3035 12.5253ZM13.6654 8.3954V9.23782H15.6654V8.3954H13.6654ZM11.7078 4.51181L12.3034 5.10745L13.7176 3.69324L13.122 3.0976L11.7078 4.51181ZM10.4307 2.96337C10.4256 2.96754 10.4225 2.97009 10.4202 2.97195C10.4178 2.97393 10.418 2.97373 10.4193 2.9727L11.6725 4.53136C11.6801 4.52527 11.6894 4.51763 11.6972 4.51128L10.4307 2.96337ZM8.42776 3.15703C8.42875 3.16701 8.42994 3.17902 8.43099 3.18867L10.4193 2.9727C10.4195 2.97433 10.4195 2.97464 10.4192 2.97152C10.4189 2.96859 10.4185 2.96459 10.4178 2.95802L8.42776 3.15703ZM10.4193 2.9727L8.43099 3.18867C8.60164 4.75966 10.441 5.52155 11.6725 4.53136L10.4193 2.9727ZM13.122 3.0976C13.1182 3.09381 13.1133 3.08893 13.1087 3.08433L11.7027 4.50675C11.7022 4.50619 11.702 4.50605 11.7029 4.50695C11.7039 4.50794 11.7053 4.50929 11.7078 4.51181L13.122 3.0976ZM11.6972 4.51128C11.6999 4.50903 11.7014 4.50781 11.7025 4.50693C11.7035 4.50612 11.7033 4.50625 11.7027 4.50675L10.4453 2.95149C10.4402 2.9556 10.4348 2.95998 10.4307 2.96337L11.6972 4.51128ZM13.1087 3.08433C12.3842 2.36827 11.2374 2.31107 10.4453 2.95149L11.7027 4.50675L13.1087 3.08433ZM13.8519 6.38454C13.8553 6.3804 13.8596 6.37505 13.8638 6.36996L12.3085 5.11252C12.309 5.1119 12.3091 5.11175 12.3083 5.11274C12.3074 5.11382 12.3062 5.11531 12.304 5.11807L13.8519 6.38454ZM12.3034 5.10745C12.3059 5.10997 12.3073 5.11133 12.3083 5.11232C12.3092 5.11322 12.3091 5.11309 12.3085 5.11252L13.7309 3.70657C13.7263 3.70191 13.7214 3.69703 13.7176 3.69324L12.3034 5.10745ZM13.8638 6.36996C14.5042 5.57787 14.447 4.431 13.7309 3.70657L12.3085 5.11252L13.8638 6.36996ZM13.8572 6.39743C13.8507 6.39678 13.8466 6.39638 13.8437 6.39608C13.8406 6.39576 13.8409 6.39579 13.8425 6.39596L13.6265 8.38427C13.6362 8.38532 13.6482 8.38651 13.6582 8.38751L13.8572 6.39743ZM12.304 5.11807C12.2976 5.12583 12.2899 5.13517 12.2839 5.14275L13.8425 6.39596C13.8415 6.39724 13.8413 6.39748 13.8433 6.39505C13.8451 6.39277 13.8477 6.38965 13.8519 6.38454L12.304 5.11807ZM13.8425 6.39596L12.2839 5.14275C11.2937 6.37427 12.0556 8.21361 13.6265 8.38427L13.8425 6.39596ZM15.6654 8.3954C15.6654 8.39004 15.6654 8.38312 15.6653 8.37656L13.6654 8.38822C13.6654 8.38743 13.6654 8.38723 13.6654 8.3885C13.6654 8.38991 13.6654 8.39183 13.6654 8.3954H15.6654ZM13.6582 8.38751C13.6618 8.38786 13.6637 8.38805 13.6651 8.3882C13.6664 8.38832 13.6662 8.38831 13.6654 8.38822L13.876 6.39934C13.8695 6.39865 13.8626 6.39797 13.8572 6.39743L13.6582 8.38751ZM15.6653 8.37656C15.6594 7.35799 14.8889 6.5066 13.876 6.39934L13.6654 8.38822L15.6653 8.37656ZM13.8573 11.2357C13.8626 11.2352 13.8694 11.2345 13.8758 11.2338L13.6654 9.24492C13.6662 9.24483 13.6663 9.24481 13.6651 9.24494C13.6637 9.24508 13.6618 9.24527 13.6583 9.24562L13.8573 11.2357ZM13.6654 9.23782C13.6654 9.24135 13.6654 9.24325 13.6654 9.24464C13.6654 9.2459 13.6654 9.2457 13.6654 9.24492L15.6653 9.25644C15.6654 9.24996 15.6654 9.24312 15.6654 9.23782H13.6654ZM13.8758 11.2338C14.8889 11.1266 15.6595 10.2751 15.6653 9.25644L13.6654 9.24492L13.8758 11.2338ZM13.852 11.2484C13.8479 11.2434 13.8454 11.2403 13.8435 11.238C13.8416 11.2357 13.8418 11.2359 13.8428 11.2371L12.2843 12.4906C12.2903 12.498 12.2978 12.5072 12.3041 12.5149L13.852 11.2484ZM13.6583 9.24562C13.6484 9.24661 13.6366 9.24778 13.6271 9.24882L13.8428 11.2371C13.8412 11.2373 13.8409 11.2373 13.8439 11.237C13.8468 11.2367 13.8508 11.2363 13.8573 11.2357L13.6583 9.24562ZM13.8428 11.2371L13.6271 9.24882C12.0558 9.41929 11.2938 11.259 12.2843 12.4906L13.8428 11.2371ZM13.7178 13.9395C13.7215 13.9358 13.7263 13.931 13.7308 13.9264L12.3085 12.5203C12.3091 12.5198 12.3092 12.5196 12.3083 12.5205C12.3074 12.5215 12.306 12.5228 12.3035 12.5253L13.7178 13.9395ZM12.3041 12.5149C12.3063 12.5176 12.3075 12.519 12.3083 12.5201C12.3091 12.5211 12.309 12.5209 12.3085 12.5203L13.8637 11.2627C13.8596 11.2577 13.8553 11.2525 13.852 11.2484L12.3041 12.5149ZM13.7308 13.9264C14.447 13.2019 14.5042 12.0549 13.8637 11.2627L12.3085 12.5203L13.7308 13.9264ZM10.4307 14.6695C10.4349 14.6729 10.4402 14.6772 10.4453 14.6814L11.7028 13.1261C11.7034 13.1266 11.7035 13.1267 11.7025 13.1259C11.7015 13.125 11.7 13.1238 11.6972 13.1216L10.4307 14.6695ZM11.7078 13.121C11.7053 13.1235 11.7039 13.1249 11.703 13.1259C11.702 13.1268 11.7022 13.1267 11.7028 13.1261L13.1087 14.5485C13.1134 14.5439 13.1182 14.539 13.122 14.5352L11.7078 13.121ZM10.4453 14.6814C11.2374 15.3218 12.3843 15.2646 13.1087 14.5485L11.7028 13.1261L10.4453 14.6814ZM10.4178 14.675C10.4185 14.6683 10.4189 14.6643 10.4192 14.6613C10.4195 14.6582 10.4195 14.6585 10.4193 14.6601L8.43102 14.4442C8.42997 14.4538 8.42878 14.4659 8.42777 14.4759L10.4178 14.675ZM11.6972 13.1216C11.6895 13.1152 11.6801 13.1076 11.6726 13.1015L10.4193 14.6601C10.418 14.6591 10.4178 14.6589 10.4202 14.6609C10.4225 14.6628 10.4256 14.6653 10.4307 14.6695L11.6972 13.1216ZM10.4193 14.6601L11.6726 13.1015C10.441 12.1113 8.60167 12.8732 8.43102 14.4442L10.4193 14.6601ZM8.41979 16.4832C8.42521 16.4832 8.43221 16.4832 8.43884 16.4832L8.42704 14.4832C8.42785 14.4832 8.42805 14.4832 8.42676 14.4832C8.42534 14.4832 8.42339 14.4832 8.41979 14.4832V16.4832ZM8.42777 14.4759C8.42741 14.4796 8.42722 14.4815 8.42707 14.4829C8.42694 14.4842 8.42696 14.484 8.42704 14.4832L10.4159 14.694C10.4166 14.6874 10.4173 14.6804 10.4178 14.675L8.42777 14.4759ZM8.43884 16.4832C9.4573 16.4772 10.3086 15.7068 10.4159 14.694L8.42704 14.4832L8.43884 16.4832ZM5.57956 14.6751C5.5801 14.6804 5.58078 14.6873 5.58147 14.6938L7.57035 14.4832C7.57044 14.484 7.57045 14.4842 7.57033 14.483C7.57018 14.4816 7.56999 14.4796 7.56964 14.4761L5.57956 14.6751ZM7.57753 14.4832C7.57396 14.4832 7.57204 14.4832 7.57063 14.4832C7.56936 14.4832 7.56956 14.4832 7.57035 14.4832L7.55869 16.4832C7.56525 16.4832 7.57216 16.4832 7.57753 16.4832V14.4832ZM5.58147 14.6938C5.68873 15.7068 6.54012 16.4773 7.55869 16.4832L7.57035 14.4832L5.58147 14.6938ZM5.56665 14.6698C5.57177 14.6656 5.57489 14.663 5.57718 14.6612C5.57961 14.6592 5.57938 14.6594 5.57809 14.6604L4.3249 13.1017C4.31731 13.1078 4.30796 13.1155 4.30018 13.1218L5.56665 14.6698ZM7.56964 14.4761C7.56864 14.4661 7.56745 14.4541 7.56639 14.4444L5.57809 14.6604C5.57792 14.6588 5.57789 14.6585 5.57821 14.6616C5.57851 14.6645 5.57891 14.6685 5.57956 14.6751L7.56964 14.4761ZM5.57809 14.6604L7.56639 14.4444C7.39573 12.8734 5.55641 12.1116 4.3249 13.1017L5.57809 14.6604ZM2.87533 14.5355C2.87912 14.5393 2.88402 14.5442 2.88868 14.5488L4.29462 13.1264C4.29519 13.127 4.29533 13.1271 4.29442 13.1262C4.29343 13.1252 4.29207 13.1238 4.28954 13.1213L2.87533 14.5355ZM4.30018 13.1218C4.29741 13.1241 4.29593 13.1253 4.29484 13.1262C4.29385 13.127 4.294 13.1269 4.29462 13.1264L5.55204 14.6817C5.55714 14.6775 5.5625 14.6732 5.56665 14.6698L4.30018 13.1218ZM2.88868 14.5488C3.61311 15.2649 4.75996 15.3221 5.55204 14.6817L4.29462 13.1264L2.88868 14.5488ZM2.14548 11.2486C2.14208 11.2527 2.1377 11.2581 2.13358 11.2632L3.68885 12.5206C3.68835 12.5212 3.68822 12.5214 3.68903 12.5204C3.68992 12.5193 3.69113 12.5178 3.69339 12.5151L2.14548 11.2486ZM3.69392 12.5257C3.6914 12.5232 3.69004 12.5218 3.68905 12.5208C3.68815 12.5199 3.68829 12.5201 3.68885 12.5206L2.26642 13.9266C2.27102 13.9312 2.27591 13.9361 2.2797 13.9399L3.69392 12.5257ZM2.13358 11.2632C1.49317 12.0553 1.55037 13.2021 2.26642 13.9266L3.68885 12.5206L2.13358 11.2632ZM2.14015 11.2357C2.14671 11.2364 2.15072 11.2368 2.15365 11.2371C2.15677 11.2374 2.15646 11.2373 2.15483 11.2372L2.37081 9.24887C2.36114 9.24782 2.34914 9.24662 2.33916 9.24563L2.14015 11.2357ZM3.69339 12.5151C3.69975 12.5073 3.7074 12.498 3.71349 12.4904L2.15483 11.2372C2.15585 11.2359 2.15606 11.2357 2.15407 11.2381C2.15221 11.2404 2.14966 11.2435 2.14548 11.2486L3.69339 12.5151ZM2.15483 11.2372L3.71349 12.4904C4.70367 11.2589 3.94179 9.41951 2.37081 9.24887L2.15483 11.2372ZM0.332031 9.23775C0.332031 9.24311 0.332027 9.25001 0.332065 9.25655L2.33203 9.24491C2.33204 9.24571 2.33203 9.24591 2.33203 9.24463C2.33203 9.24323 2.33203 9.24131 2.33203 9.23775H0.332031ZM2.33916 9.24563C2.33561 9.24527 2.33371 9.24508 2.33231 9.24494C2.33104 9.24481 2.33124 9.24483 2.33203 9.24491L2.12145 11.2338C2.12795 11.2345 2.13482 11.2352 2.14015 11.2357L2.33916 9.24563ZM0.332065 9.25655C0.337993 10.2751 1.10851 11.1265 2.12145 11.2338L2.33203 9.24491L0.332065 9.25655ZM2.14023 6.39743C2.13484 6.39797 2.12789 6.39866 2.12131 6.39935L2.33203 8.38822C2.33123 8.38831 2.33103 8.38833 2.33231 8.3882C2.33373 8.38805 2.33566 8.38786 2.33924 8.3875L2.14023 6.39743ZM2.33203 8.39547C2.33203 8.39186 2.33203 8.38993 2.33203 8.38851C2.33203 8.38722 2.33204 8.38742 2.33203 8.38822L0.332066 8.37645C0.332027 8.38307 0.332031 8.39005 0.332031 8.39547H2.33203ZM2.12131 6.39935C1.10848 6.50666 0.338061 7.35797 0.332066 8.37645L2.33203 8.38822L2.12131 6.39935ZM2.14559 6.38435C2.14983 6.38953 2.15242 6.3927 2.15431 6.39501C2.15633 6.39748 2.15612 6.39724 2.15508 6.39594L3.71386 5.14287C3.7077 5.13521 3.69995 5.12575 3.69351 5.11788L2.14559 6.38435ZM2.33924 8.3875C2.34933 8.38649 2.36148 8.38529 2.37125 8.38423L2.15508 6.39594C2.15673 6.39576 2.15704 6.39574 2.15388 6.39606C2.15092 6.39636 2.14687 6.39676 2.14023 6.39743L2.33924 8.3875ZM2.15508 6.39594L2.37125 8.38423C3.94204 8.21344 4.70382 6.37435 3.71386 5.14287L2.15508 6.39594ZM2.27981 3.69285C2.27596 3.6967 2.27099 3.70167 2.26632 3.7064L3.68888 5.11222C3.68831 5.11279 3.68817 5.11293 3.68908 5.11202C3.69009 5.11101 3.69147 5.10963 3.69403 5.10707L2.27981 3.69285ZM3.69351 5.11788C3.69121 5.11507 3.68997 5.11355 3.68906 5.11244C3.68824 5.11143 3.68837 5.11159 3.68888 5.11222L2.13349 6.36951C2.13768 6.37469 2.14214 6.38013 2.14559 6.38435L3.69351 5.11788ZM2.26632 3.7064C1.55044 4.4308 1.49325 5.57747 2.13349 6.36951L3.68888 5.11222L2.26632 3.7064ZM5.56673 2.96312C5.56256 2.9597 5.55718 2.95529 5.55207 2.95117L4.29465 4.50645C4.29402 4.50594 4.29387 4.50581 4.29488 4.50663C4.29598 4.50753 4.29748 4.50876 4.30026 4.51103L5.56673 2.96312ZM4.28957 4.51152C4.2921 4.509 4.29346 4.50764 4.29445 4.50665C4.29536 4.50574 4.29522 4.50589 4.29465 4.50645L2.88871 3.08401C2.88405 3.08862 2.87915 3.09351 2.87536 3.09731L4.28957 4.51152ZM5.55207 2.95117C4.75999 2.31078 3.61314 2.36798 2.88871 3.08401L4.29465 4.50645L5.55207 2.95117ZM5.57957 2.95794C5.57893 2.96442 5.57853 2.96838 5.57824 2.97127C5.57792 2.97436 5.57795 2.97405 5.57812 2.97244L7.56645 3.18822C7.56749 3.17867 7.56866 3.16681 7.56965 3.15694L5.57957 2.95794ZM4.30026 4.51103C4.30799 4.51736 4.31726 4.52496 4.32474 4.53098L5.57812 2.97244C5.5794 2.97346 5.57963 2.97366 5.5772 2.97168C5.57493 2.96982 5.57181 2.96728 5.56673 2.96312L4.30026 4.51103ZM5.57812 2.97244L4.32474 4.53098C5.5563 5.5214 7.39594 4.7594 7.56645 3.18822L5.57812 2.97244ZM8.41988 3.1499C8.42344 3.1499 8.42536 3.1499 8.42676 3.1499C8.42804 3.14991 8.42784 3.14991 8.42704 3.1499L8.43869 1.14994C8.43214 1.1499 8.42523 1.1499 8.41988 1.1499V3.1499ZM10.4178 2.95802C10.4173 2.9527 10.4166 2.94582 10.4159 2.93931L8.42704 3.1499C8.42696 3.14911 8.42694 3.14891 8.42707 3.15018C8.42721 3.15158 8.4274 3.15349 8.42776 3.15703L10.4178 2.95802ZM8.42704 3.1499L10.4159 2.93931C10.3087 1.92638 9.45727 1.15587 8.43869 1.14994L8.42704 3.1499ZM7.57743 1.1499C7.57214 1.1499 7.56532 1.1499 7.55885 1.14994L7.57035 3.1499C7.56957 3.14991 7.56937 3.14991 7.57063 3.1499C7.57202 3.1499 7.57391 3.1499 7.57743 3.1499V1.1499ZM7.56965 3.15694C7.57 3.15344 7.57019 3.15156 7.57033 3.15018C7.57045 3.14893 7.57043 3.14912 7.57035 3.1499L5.58146 2.93945C5.58077 2.94588 5.5801 2.95267 5.57957 2.95794L7.56965 3.15694ZM7.55885 1.14994C6.54016 1.15579 5.68865 1.9264 5.58146 2.93945L7.57035 3.1499L7.55885 1.14994Z" fill="#979797" mask="url(#path-1-outside-1_2564_39107)"/>
<path d="M10.3307 6.47803L5.66406 11.1447" stroke="white"/>
<circle cx="6.05556" cy="7.25575" r="1.05556" stroke="white"/>
<circle cx="9.94228" cy="10.3666" r="1.05556" stroke="white"/>
</svg>
