<svg width="17" height="20" viewBox="0 0 17 20" fill="none" xmlns="http://www.w3.org/2000/svg">
<path d="M5.13281 2.66683V13.6668C5.13281 14.1531 5.31165 14.6194 5.62999 14.9632C5.94833 15.307 6.38008 15.5002 6.83028 15.5002H13.6201C14.0703 15.5002 14.5021 15.307 14.8204 14.9632C15.1388 14.6194 15.3176 14.1531 15.3176 13.6668V5.63866C15.3176 5.39443 15.2724 5.15266 15.1846 4.92755C15.0969 4.70245 14.9684 4.49855 14.8067 4.32783L11.9931 1.356C11.676 1.0211 11.2501 0.833556 10.8066 0.833496H6.83028C6.38008 0.833496 5.94833 1.02665 5.62999 1.37047C5.31165 1.71428 5.13281 2.1806 5.13281 2.66683Z" stroke="#A5A5A5" stroke-width="1.5" stroke-linecap="round" stroke-linejoin="round"/>
<path d="M11.9231 15.5003V17.3337C11.9231 17.8199 11.7442 18.2862 11.4259 18.63C11.1076 18.9738 10.6758 19.167 10.2256 19.167H3.43575C2.98555 19.167 2.55379 18.9738 2.23546 18.63C1.91712 18.2862 1.73828 17.8199 1.73828 17.3337V7.25033C1.73828 6.7641 1.91712 6.29778 2.23546 5.95396C2.55379 5.61015 2.98555 5.41699 3.43575 5.41699H5.13322" stroke="#A5A5A5" stroke-width="1.5" stroke-linecap="round" stroke-linejoin="round"/>
</svg>
