<svg width="18" height="18" viewBox="0 0 18 18" fill="none" xmlns="http://www.w3.org/2000/svg">
<path fill-rule="evenodd" clip-rule="evenodd" d="M8.99133 2.4226C9.10374 2.32171 9.25243 2.26882 9.40462 2.27561C12.6219 2.37192 15.3107 4.70749 15.7981 7.82907C15.8012 7.84771 15.8012 7.86671 15.7981 7.88535C15.8086 8.03305 15.7586 8.17877 15.6593 8.29026C15.5601 8.40176 15.4196 8.46985 15.269 8.47947L9.86357 8.83595C9.68481 8.8518 9.50753 8.79297 9.37527 8.67393C9.24302 8.55488 9.16804 8.38665 9.16877 8.21056L8.80543 2.901V2.81344C8.81205 2.66411 8.87893 2.5235 8.99133 2.4226ZM8.62042 10.2244L13.3055 9.92416L13.3374 9.93667C13.5386 9.93996 13.7302 10.0215 13.8701 10.1635C14.01 10.3054 14.0866 10.496 14.0832 10.6934C13.8986 13.3837 11.9262 15.6315 9.24203 16.2106C6.55786 16.7897 3.80626 15.5611 2.48832 13.195C2.10079 12.5135 1.8559 11.7629 1.76802 10.9873C1.73394 10.7575 1.71902 10.5253 1.7234 10.2931C1.73229 7.43243 3.76903 4.96322 6.61888 4.35819C6.96388 4.29362 7.30977 4.46587 7.46029 4.7772C7.49776 4.8337 7.52775 4.89464 7.54953 4.95857C7.60296 5.78322 7.65837 6.60006 7.71355 7.41346C7.75713 8.05584 7.80056 8.69607 7.84275 9.3363C7.84057 9.48712 7.86428 9.63722 7.91287 9.78033C8.02726 10.0619 8.31192 10.2405 8.62042 10.2244Z" fill="#0062FF"/>
</svg>
