<svg width="35" height="35" viewBox="0 0 35 35" fill="none" xmlns="http://www.w3.org/2000/svg">
<path d="M35 17.5005C35 26.3389 28.4478 33.6457 19.9367 34.8317C19.1406 34.9426 18.3263 35 17.5 35C16.5457 35 15.6095 34.9234 14.6965 34.7763C6.36474 33.4351 0 26.2099 0 17.4995C0 7.83477 7.83499 0 17.5 0C27.165 0 35 7.83477 35 17.4995V17.5005Z" fill="url(#paint0_linear_2208_28057)"/>
<path d="M22.9793 6.99805H12.0184C8.99021 6.99805 6.52734 9.46083 6.52734 12.4889V22.5164C6.52734 25.5445 8.99021 28.0073 12.0184 28.0073H22.9793C26.0075 28.0073 28.4704 25.5445 28.4704 22.5164V12.4889C28.4704 9.46083 26.0075 6.99805 22.9793 6.99805ZM8.46418 12.4889C8.46418 10.529 10.0584 8.93482 12.0184 8.93482H22.9793C24.9393 8.93482 26.5335 10.529 26.5335 12.4889V22.5164C26.5335 24.4764 24.9393 26.0705 22.9793 26.0705H12.0184C10.0584 26.0705 8.46418 24.4764 8.46418 22.5164V12.4889Z" fill="white"/>
<path d="M17.4987 22.6114C20.3153 22.6114 22.6068 20.32 22.6068 17.5035C22.6068 14.687 20.3153 12.3955 17.4987 12.3955C14.6822 12.3955 12.3906 14.687 12.3906 17.5035C12.3906 20.32 14.6822 22.6114 17.4987 22.6114ZM17.4987 14.3333C19.2471 14.3333 20.669 15.7551 20.669 17.5035C20.669 19.2518 19.2471 20.6737 17.4987 20.6737C15.7503 20.6737 14.3285 19.2518 14.3285 17.5035C14.3285 15.7551 15.7503 14.3333 17.4987 14.3333Z" fill="white"/>
<path d="M23.0797 13.2198C23.8385 13.2198 24.4562 12.6021 24.4562 11.8433C24.4562 11.0845 23.8385 10.4668 23.0797 10.4668C22.3209 10.4668 21.7031 11.0845 21.7031 11.8433C21.7031 12.6021 22.3209 13.2198 23.0797 13.2198Z" fill="white"/>
<defs>
<linearGradient id="paint0_linear_2208_28057" x1="5.12524" y1="29.8749" x2="29.874" y2="5.12539" gradientUnits="userSpaceOnUse">
<stop stop-color="#FAAD4F"/>
<stop offset="0.35" stop-color="#DD2A7B"/>
<stop offset="0.62" stop-color="#9537B0"/>
<stop offset="1" stop-color="#515BD4"/>
</linearGradient>
</defs>
</svg>
