<svg width="16" height="16" viewBox="0 0 16 16" fill="none" xmlns="http://www.w3.org/2000/svg">
<path d="M13.3346 8V10C13.3346 11.8856 13.3346 12.8284 12.7488 13.4142C12.1631 14 11.2203 14 9.33464 14H4.33464C3.41416 14 2.66797 13.2538 2.66797 12.3333V12.3333C2.66797 11.4129 3.41416 10.6667 4.33464 10.6667H9.33463C11.2203 10.6667 12.1631 10.6667 12.7488 10.0809C13.3346 9.49509 13.3346 8.55228 13.3346 6.66667V6C13.3346 4.11438 13.3346 3.17157 12.7488 2.58579C12.1631 2 11.2203 2 9.33464 2H6.66797C4.78235 2 3.83954 2 3.25376 2.58579C2.66797 3.17157 2.66797 4.11438 2.66797 6V12.3333" stroke="#979797" stroke-width="1.5"/>
<path d="M6 6.66671L6.62623 7.29293C7.01675 7.68346 7.64992 7.68346 8.04044 7.29293L10 5.33337" stroke="#979797" stroke-width="1.5" stroke-linecap="round"/>
</svg>
