<svg width="35" height="35" viewBox="0 0 35 35" fill="none" xmlns="http://www.w3.org/2000/svg">
<path d="M35 17.5005C35 26.3389 28.4478 33.6457 19.9367 34.8317C19.1406 34.9426 18.3263 35 17.5 35C16.5457 35 15.6095 34.9234 14.6965 34.7763C6.36473 33.4351 0 26.2099 0 17.4995C0 7.83477 7.83498 0 17.5 0C27.165 0 35 7.83477 35 17.4995V17.5005Z" fill="#2188F7"/>
<path d="M27.8447 11.0909C27.3589 11.5817 26.6858 11.885 25.9401 11.885C25.8453 11.885 25.7506 11.8799 25.6589 11.8699C26.4369 11.4033 27.0375 10.6727 27.3368 9.80109C27.3368 9.80109 27.3378 9.80109 27.3378 9.80008C27.3791 9.68319 27.4144 9.56529 27.4426 9.44336C26.8269 10.1014 25.9854 10.5468 25.0412 10.6526C24.8961 10.6697 24.749 10.6778 24.5998 10.6778C24.5525 10.6778 24.5071 10.6768 24.4618 10.6737C24.1423 10.3382 23.7614 10.0611 23.3392 9.85752C22.8686 9.62777 22.3425 9.49274 21.7873 9.47561C21.7419 9.47258 21.6966 9.47157 21.6492 9.47157C21.1786 9.47157 20.7272 9.55521 20.31 9.70939C20.2032 9.74869 20.0993 9.79101 19.9976 9.84039C18.6754 10.4601 17.7604 11.8034 17.7604 13.3602C17.7604 13.6797 17.7998 13.99 17.8713 14.2863C17.4662 14.2702 17.0651 14.2309 16.6721 14.1724C16.5462 14.1523 16.4202 14.1311 16.2952 14.1069C15.2926 13.9205 14.3362 13.6001 13.4474 13.1647C12.6523 12.7758 11.9107 12.2961 11.2365 11.7379C10.6691 11.2703 10.1502 10.7483 9.68662 10.178C9.66647 10.1538 9.64632 10.1286 9.62717 10.1044C9.59996 10.1457 9.57477 10.187 9.5526 10.2304C9.22812 10.7977 9.04471 11.4537 9.04471 12.153C9.04471 12.1742 9.04471 12.1974 9.04572 12.2185C9.05378 12.7425 9.16463 13.2413 9.36315 13.6948C9.4478 13.8963 9.55059 14.0868 9.66849 14.2672C10.0162 14.8022 10.4908 15.2476 11.0511 15.556C11.0763 15.5721 11.1025 15.5852 11.1287 15.5973C11.0884 15.6054 11.047 15.6124 11.0057 15.6164C10.8908 15.6316 10.7719 15.6396 10.653 15.6396C10.0565 15.6396 9.50121 15.4532 9.04673 15.1358C9.0437 15.169 9.0437 15.2033 9.0437 15.2376C9.0437 16.348 9.50927 17.3497 10.255 18.0561C10.8354 18.6103 11.5862 18.9821 12.4206 19.091C12.1203 19.2008 11.7958 19.2602 11.4582 19.2602C11.0924 19.2602 10.7417 19.1907 10.4213 19.0627C10.8989 20.6156 12.3228 21.7543 14.0198 21.8047C12.9829 22.8819 11.5267 23.551 9.91538 23.551C8.91371 23.551 7.9725 23.292 7.15625 22.8385C9.11827 24.5365 11.6769 25.5623 14.4753 25.5623C20.6596 25.5623 25.672 20.5501 25.672 14.3659C25.672 14.0253 25.6569 13.6887 25.6267 13.3562C26.6495 12.9521 27.4607 12.1268 27.8447 11.0919V11.0909Z" fill="white"/>
</svg>
