<svg width="35" height="35" viewBox="0 0 35 35" fill="none" xmlns="http://www.w3.org/2000/svg">
<path d="M35 17.5C35 26.3387 28.448 33.6456 19.9371 34.8317C19.141 34.9426 18.3268 35 17.5005 35C16.5462 35 15.6101 34.9234 14.6971 34.7763C6.36355 33.435 0 26.2107 0 17.5C0 7.835 7.83477 0 17.4995 0C27.1642 0 34.999 7.835 34.999 17.5H35Z" fill="#00E510"/>
<path d="M20.755 22.6839C16.2214 22.6829 12.5323 18.9936 12.5312 14.4609C12.5333 13.3121 13.4674 12.377 14.6151 12.377C14.733 12.377 14.8499 12.387 14.9608 12.4072C15.2067 12.4475 15.4394 12.5311 15.6551 12.6561C15.6863 12.6742 15.7075 12.7045 15.7125 12.7397L16.1912 15.7599C16.1972 15.7951 16.1861 15.8304 16.163 15.8566C15.8979 16.1498 15.5604 16.3605 15.1855 16.4663L15.0051 16.5177L15.0736 16.693C15.6924 18.266 16.95 19.5247 18.524 20.1434L18.6993 20.2119L18.7497 20.0306C18.8555 19.6547 19.0661 19.3171 19.3593 19.0531C19.3805 19.0339 19.4087 19.0228 19.4379 19.0228C19.444 19.0228 19.451 19.0228 19.4571 19.0249L22.4761 19.5035C22.5124 19.5096 22.5416 19.5297 22.5608 19.561C22.6847 19.7766 22.7683 20.0104 22.8097 20.2553C22.8288 20.3651 22.8389 20.48 22.8389 20.6009C22.8389 21.7487 21.9037 22.6829 20.755 22.6849V22.6839Z" fill="#FDFDFD"/>
<path d="M28.7924 16.5076C28.5475 13.7444 27.2819 11.1818 25.2282 9.29232C23.1625 7.39076 20.481 6.34375 17.6776 6.34375C11.5247 6.34375 6.51849 11.3501 6.51849 17.5032C6.51849 19.568 7.08784 21.5804 8.16606 23.3328L5.76172 28.6566L13.4625 27.8363C14.8017 28.3845 16.2195 28.6627 17.6776 28.6627C18.0616 28.6627 18.4545 28.6425 18.8486 28.6022C19.1962 28.5649 19.5469 28.5105 19.8925 28.4409C25.0458 27.4 28.8075 22.826 28.8368 17.5627V17.5032C28.8368 17.1676 28.8216 16.8331 28.7914 16.5086L28.7924 16.5076ZM13.7577 25.4994L9.49722 25.9529L10.7699 23.1343L10.516 22.7927C10.4968 22.7675 10.4787 22.7423 10.4575 22.7141C9.35312 21.1894 8.76967 19.3876 8.76967 17.5022C8.76967 12.5896 12.7662 8.59398 17.6776 8.59398C22.2797 8.59398 26.1795 12.1845 26.5553 16.7676C26.5755 17.0134 26.5856 17.2603 26.5856 17.5032C26.5856 17.5727 26.5846 17.6413 26.5826 17.7138C26.4878 21.8233 23.6169 25.313 19.6013 26.2018C19.295 26.2703 18.9806 26.3217 18.6672 26.356C18.3417 26.3933 18.0081 26.4114 17.6766 26.4114C16.4966 26.4114 15.3499 26.1827 14.2656 25.7312C14.1457 25.6828 14.0278 25.6314 13.9169 25.578L13.7557 25.5004L13.7577 25.4994Z" fill="#FDFDFD"/>
</svg>
