<svg width="16" height="16" viewBox="0 0 16 16" fill="none" xmlns="http://www.w3.org/2000/svg">
<mask id="path-1-outside-1_1_61" maskUnits="userSpaceOnUse" x="0.333333" y="0.333333" width="16" height="16" fill="black">
<rect fill="white" x="0.333333" y="0.333333" width="16" height="16"/>
<path fill-rule="evenodd" clip-rule="evenodd" d="M9.4241 2.24096C9.42343 2.23428 9.42309 2.23093 9.42279 2.22804C9.36916 1.72157 8.94346 1.33632 8.43417 1.33335C8.43126 1.33333 8.4279 1.33333 8.42118 1.33333H7.57873C7.5721 1.33333 7.56878 1.33333 7.5659 1.33335C7.05656 1.33628 6.6308 1.72158 6.57721 2.22811C6.5769 2.23097 6.57657 2.23427 6.57591 2.24087V2.24087C6.57467 2.25334 6.57404 2.25957 6.57359 2.26376C6.48833 3.04935 5.56852 3.43035 4.95274 2.93514C4.94945 2.9325 4.94457 2.9285 4.9348 2.92051V2.92051C4.92955 2.91622 4.92693 2.91407 4.92466 2.91224C4.52862 2.59204 3.9552 2.62064 3.59298 2.97866C3.59091 2.98071 3.58853 2.98309 3.58377 2.98785L2.98822 3.58339C2.98339 3.58822 2.98098 3.59064 2.9789 3.59274C2.62096 3.95494 2.59237 4.52827 2.91249 4.92429C2.91435 4.9266 2.91652 4.92925 2.92085 4.93455V4.93455C2.929 4.9445 2.93307 4.94948 2.93577 4.95284C3.43075 5.56858 3.04986 6.48812 2.26446 6.57352C2.26017 6.57398 2.2538 6.57462 2.24104 6.5759V6.5759C2.23428 6.57657 2.2309 6.57691 2.22797 6.57722C1.72156 6.63087 1.33635 7.05653 1.33335 7.56577C1.33333 7.56871 1.33333 7.57211 1.33333 7.5789L1.33333 8.42119C1.33333 8.4279 1.33333 8.43126 1.33335 8.43417C1.33631 8.94346 1.72157 9.36916 2.22804 9.42279C2.23093 9.42309 2.23427 9.42343 2.24095 9.4241V9.4241C2.25357 9.42536 2.25988 9.42599 2.26412 9.42645C3.04961 9.51177 3.43055 10.4315 2.93546 11.0472C2.93279 11.0505 2.92877 11.0554 2.92074 11.0653V11.0653C2.91648 11.0705 2.91435 11.0731 2.91251 11.0753C2.59231 11.4714 2.62091 12.0448 2.97893 12.407C2.98098 12.4091 2.98336 12.4115 2.98811 12.4162L3.58374 13.0119C3.5885 13.0166 3.59088 13.019 3.59295 13.021C3.95517 13.3791 4.52859 13.4077 4.92463 13.0875C4.9269 13.0856 4.92951 13.0835 4.93472 13.0792V13.0792C4.94455 13.0712 4.94947 13.0672 4.9528 13.0645C5.56855 12.5694 6.48821 12.9504 6.57355 13.7358C6.57401 13.7401 6.57464 13.7464 6.5759 13.759V13.759C6.57657 13.7657 6.57691 13.7691 6.57721 13.772C6.63084 14.2784 7.05654 14.6637 7.56582 14.6667C7.56874 14.6667 7.5721 14.6667 7.57883 14.6667H8.42109C8.42789 14.6667 8.4313 14.6667 8.43425 14.6666C8.94348 14.6636 9.36912 14.2784 9.42278 13.772C9.42309 13.7691 9.42343 13.7657 9.42411 13.7589V13.7589C9.42538 13.7462 9.42602 13.7398 9.42648 13.7356C9.5118 12.9501 10.4315 12.5691 11.0472 13.0642C11.0506 13.0669 11.0555 13.0709 11.0653 13.079V13.079C11.0705 13.0832 11.0731 13.0853 11.0753 13.0872C11.4714 13.4074 12.0448 13.3788 12.407 13.0207C12.4091 13.0187 12.4115 13.0163 12.4162 13.0116L13.0119 12.4158C13.0166 12.4112 13.019 12.4088 13.021 12.4068C13.3791 12.0446 13.4077 11.471 13.0874 11.075C13.0856 11.0727 13.0835 11.0702 13.0793 11.0651V11.0651C13.0714 11.0554 13.0675 11.0506 13.0648 11.0473C12.5696 10.4315 12.9506 9.51165 13.7362 9.42641C13.7404 9.42596 13.7466 9.42534 13.7591 9.42409V9.42409C13.7657 9.42343 13.769 9.4231 13.7719 9.42279C14.2784 9.36919 14.6637 8.94344 14.6667 8.43411C14.6667 8.43123 14.6667 8.4279 14.6667 8.42125V7.57883C14.6667 7.5721 14.6667 7.56874 14.6666 7.56582C14.6637 7.05654 14.2784 6.63085 13.772 6.57721C13.7691 6.57691 13.7657 6.57657 13.759 6.5759V6.5759C13.7464 6.57464 13.7401 6.57401 13.7358 6.57355C12.9503 6.48822 12.5694 5.56855 13.0645 4.95279C13.0672 4.94946 13.0712 4.94455 13.0792 4.93473V4.93473C13.0835 4.92954 13.0856 4.92694 13.0874 4.92467C13.4076 4.52863 13.379 3.95519 13.021 3.59297C13.019 3.5909 13.0166 3.58853 13.0118 3.58378L12.4162 2.98813C12.4114 2.98339 12.4091 2.98102 12.407 2.97897C12.0448 2.62094 11.4713 2.59234 11.0753 2.91255C11.073 2.91438 11.0704 2.9165 11.0652 2.92075V2.92075C11.0554 2.92878 11.0505 2.93279 11.0472 2.93546C10.4315 3.43056 9.51177 3.04961 9.42645 2.26412C9.42599 2.25988 9.42536 2.25357 9.4241 2.24096V2.24096Z"/>
</mask>
<path fill-rule="evenodd" clip-rule="evenodd" d="M9.4241 2.24096C9.42343 2.23428 9.42309 2.23093 9.42279 2.22804C9.36916 1.72157 8.94346 1.33632 8.43417 1.33335C8.43126 1.33333 8.4279 1.33333 8.42118 1.33333H7.57873C7.5721 1.33333 7.56878 1.33333 7.5659 1.33335C7.05656 1.33628 6.6308 1.72158 6.57721 2.22811C6.5769 2.23097 6.57657 2.23427 6.57591 2.24087V2.24087C6.57467 2.25334 6.57404 2.25957 6.57359 2.26376C6.48833 3.04935 5.56852 3.43035 4.95274 2.93514C4.94945 2.9325 4.94457 2.9285 4.9348 2.92051V2.92051C4.92955 2.91622 4.92693 2.91407 4.92466 2.91224C4.52862 2.59204 3.9552 2.62064 3.59298 2.97866C3.59091 2.98071 3.58853 2.98309 3.58377 2.98785L2.98822 3.58339C2.98339 3.58822 2.98098 3.59064 2.9789 3.59274C2.62096 3.95494 2.59237 4.52827 2.91249 4.92429C2.91435 4.9266 2.91652 4.92925 2.92085 4.93455V4.93455C2.929 4.9445 2.93307 4.94948 2.93577 4.95284C3.43075 5.56858 3.04986 6.48812 2.26446 6.57352C2.26017 6.57398 2.2538 6.57462 2.24104 6.5759V6.5759C2.23428 6.57657 2.2309 6.57691 2.22797 6.57722C1.72156 6.63087 1.33635 7.05653 1.33335 7.56577C1.33333 7.56871 1.33333 7.57211 1.33333 7.5789L1.33333 8.42119C1.33333 8.4279 1.33333 8.43126 1.33335 8.43417C1.33631 8.94346 1.72157 9.36916 2.22804 9.42279C2.23093 9.42309 2.23427 9.42343 2.24095 9.4241V9.4241C2.25357 9.42536 2.25988 9.42599 2.26412 9.42645C3.04961 9.51177 3.43055 10.4315 2.93546 11.0472C2.93279 11.0505 2.92877 11.0554 2.92074 11.0653V11.0653C2.91648 11.0705 2.91435 11.0731 2.91251 11.0753C2.59231 11.4714 2.62091 12.0448 2.97893 12.407C2.98098 12.4091 2.98336 12.4115 2.98811 12.4162L3.58374 13.0119C3.5885 13.0166 3.59088 13.019 3.59295 13.021C3.95517 13.3791 4.52859 13.4077 4.92463 13.0875C4.9269 13.0856 4.92951 13.0835 4.93472 13.0792V13.0792C4.94455 13.0712 4.94947 13.0672 4.9528 13.0645C5.56855 12.5694 6.48821 12.9504 6.57355 13.7358C6.57401 13.7401 6.57464 13.7464 6.5759 13.759V13.759C6.57657 13.7657 6.57691 13.7691 6.57721 13.772C6.63084 14.2784 7.05654 14.6637 7.56582 14.6667C7.56874 14.6667 7.5721 14.6667 7.57883 14.6667H8.42109C8.42789 14.6667 8.4313 14.6667 8.43425 14.6666C8.94348 14.6636 9.36912 14.2784 9.42278 13.772C9.42309 13.7691 9.42343 13.7657 9.42411 13.7589V13.7589C9.42538 13.7462 9.42602 13.7398 9.42648 13.7356C9.5118 12.9501 10.4315 12.5691 11.0472 13.0642C11.0506 13.0669 11.0555 13.0709 11.0653 13.079V13.079C11.0705 13.0832 11.0731 13.0853 11.0753 13.0872C11.4714 13.4074 12.0448 13.3788 12.407 13.0207C12.4091 13.0187 12.4115 13.0163 12.4162 13.0116L13.0119 12.4158C13.0166 12.4112 13.019 12.4088 13.021 12.4068C13.3791 12.0446 13.4077 11.471 13.0874 11.075C13.0856 11.0727 13.0835 11.0702 13.0793 11.0651V11.0651C13.0714 11.0554 13.0675 11.0506 13.0648 11.0473C12.5696 10.4315 12.9506 9.51165 13.7362 9.42641C13.7404 9.42596 13.7466 9.42534 13.7591 9.42409V9.42409C13.7657 9.42343 13.769 9.4231 13.7719 9.42279C14.2784 9.36919 14.6637 8.94344 14.6667 8.43411C14.6667 8.43123 14.6667 8.4279 14.6667 8.42125V7.57883C14.6667 7.5721 14.6667 7.56874 14.6666 7.56582C14.6637 7.05654 14.2784 6.63085 13.772 6.57721C13.7691 6.57691 13.7657 6.57657 13.759 6.5759V6.5759C13.7464 6.57464 13.7401 6.57401 13.7358 6.57355C12.9503 6.48822 12.5694 5.56855 13.0645 4.95279C13.0672 4.94946 13.0712 4.94455 13.0792 4.93473V4.93473C13.0835 4.92954 13.0856 4.92694 13.0874 4.92467C13.4076 4.52863 13.379 3.95519 13.021 3.59297C13.019 3.5909 13.0166 3.58853 13.0118 3.58378L12.4162 2.98813C12.4114 2.98339 12.4091 2.98102 12.407 2.97897C12.0448 2.62094 11.4713 2.59234 11.0753 2.91255C11.073 2.91438 11.0704 2.9165 11.0652 2.92075V2.92075C11.0554 2.92878 11.0505 2.93279 11.0472 2.93546C10.4315 3.43056 9.51177 3.04961 9.42645 2.26412C9.42599 2.25988 9.42536 2.25357 9.4241 2.24096V2.24096Z" fill="#979797"/>
<path d="M11.0472 2.93546L10.4206 2.15613L11.0472 2.93546ZM9.42645 2.26412L10.4206 2.15613L9.42645 2.26412ZM12.4162 2.98813L11.7091 3.69524L12.4162 2.98813ZM12.407 2.97897L13.11 2.26776L12.407 2.97897ZM11.0753 2.91255L10.4466 2.13492L11.0753 2.91255ZM13.0874 4.92467L13.8651 5.55339L13.0874 4.92467ZM13.0118 3.58378L13.7189 2.87667L13.0118 3.58378ZM13.021 3.59297L12.3098 4.29595L13.021 3.59297ZM13.7358 6.57355L13.8438 5.5794L13.7358 6.57355ZM13.0645 4.95279L12.2852 4.32618L13.0645 4.95279ZM14.6666 7.56582L13.6667 7.57165L14.6666 7.56582ZM13.772 6.57721L13.8773 5.58277L13.772 6.57721ZM13.7719 9.42279L13.6667 8.42835L13.7719 9.42279ZM14.6667 8.43411L15.6666 8.43988L14.6667 8.43411ZM13.0648 11.0473L12.2856 11.674L13.0648 11.0473ZM13.7362 9.42641L13.6284 8.43225L13.7362 9.42641ZM13.021 12.4068L12.3098 11.7038L13.021 12.4068ZM13.0874 11.075L13.865 10.4462L13.0874 11.075ZM11.0753 13.0872L10.4466 13.8648L11.0753 13.0872ZM12.407 13.0207L13.11 13.7319L12.407 13.0207ZM9.42648 13.7356L8.43233 13.6276L9.42648 13.7356ZM11.0472 13.0642L10.4206 13.8436L11.0472 13.0642ZM8.43425 14.6666L8.42835 13.6667L8.43425 14.6666ZM9.42278 13.772L10.4172 13.8774L9.42278 13.772ZM6.57721 13.772L5.58277 13.8773L6.57721 13.772ZM7.56582 14.6667L7.57165 13.6667L7.56582 14.6667ZM4.9528 13.0645L4.3262 12.2852L4.9528 13.0645ZM6.57355 13.7358L7.5677 13.6278L6.57355 13.7358ZM3.58374 13.0119L4.29085 12.3048L3.58374 13.0119ZM3.59295 13.021L2.88998 13.7323L3.59295 13.021ZM4.92463 13.0875L4.29592 12.3098L4.92463 13.0875ZM2.91251 11.0753L2.13488 10.4466L2.91251 11.0753ZM2.98811 12.4162L2.28101 13.1233L2.98811 12.4162ZM2.97893 12.407L2.26772 13.11L2.97893 12.407ZM2.26412 9.42645L2.37211 8.4323L2.26412 9.42645ZM2.93546 11.0472L2.15613 10.4206L2.93546 11.0472ZM1.33333 8.42119L0.333333 8.42119L1.33333 8.42119ZM1.33335 8.43417L2.33333 8.42835L1.33335 8.43417ZM2.22804 9.42279L2.33333 8.42835L2.22804 9.42279ZM2.22797 6.57722L2.12261 5.58279L2.22797 6.57722ZM1.33333 7.5789L2.33333 7.5789L1.33333 7.5789ZM1.33335 7.56577L0.333368 7.55988L1.33335 7.56577ZM2.93577 4.95284L2.15638 5.57937L2.93577 4.95284ZM2.26446 6.57352L2.37255 7.56766L2.26446 6.57352ZM2.98822 3.58339L2.28112 2.87629L2.98822 3.58339ZM2.9789 3.59274L3.69018 4.29565L2.9789 3.59274ZM2.91249 4.92429L3.69018 4.29565L2.91249 4.92429ZM4.92466 2.91224L4.29595 3.68988L4.92466 2.91224ZM3.58377 2.98785L4.29088 3.69495L3.58377 2.98785ZM3.59298 2.97866L2.89001 2.26744L3.59298 2.97866ZM6.57359 2.26376L7.56775 2.37165L6.57359 2.26376ZM4.95274 2.93514L4.32605 3.71441L4.95274 2.93514ZM8.43417 1.33335L8.42835 2.33333L8.43417 1.33335ZM9.42279 2.22804L10.4172 2.12275L9.42279 2.22804ZM7.5659 1.33335L7.57165 2.33333L7.5659 1.33335ZM6.57721 2.22811L7.57165 2.33333L6.57721 2.22811ZM7.57873 2.33333H8.42118V0.333333H7.57873V2.33333ZM3.69533 4.2905L4.29088 3.69495L2.87666 2.28074L2.28112 2.87629L3.69533 4.2905ZM2.33333 8.42119L2.33333 7.5789L0.333333 7.5789L0.333333 8.42119L2.33333 8.42119ZM4.29085 12.3048L3.69522 11.7091L2.28101 13.1233L2.87663 13.719L4.29085 12.3048ZM8.42109 13.6667H7.57883V15.6667H8.42109V13.6667ZM12.3048 11.7087L11.7091 12.3045L13.1233 13.7187L13.7191 13.123L12.3048 11.7087ZM13.6667 7.57883V8.42125H15.6667V7.57883H13.6667ZM11.7091 3.69524L12.3047 4.29088L13.7189 2.87667L13.1233 2.28103L11.7091 3.69524ZM10.432 2.1468C10.4269 2.15097 10.4238 2.15352 10.4215 2.15538C10.4191 2.15736 10.4193 2.15716 10.4206 2.15613L11.6738 3.71479C11.6814 3.7087 11.6907 3.70106 11.6985 3.69471L10.432 2.1468ZM8.42906 2.34046C8.43006 2.35044 8.43125 2.36245 8.4323 2.3721L10.4206 2.15613C10.4208 2.15776 10.4208 2.15808 10.4205 2.15495C10.4202 2.15203 10.4198 2.14802 10.4191 2.14146L8.42906 2.34046ZM10.4206 2.15613L8.4323 2.3721C8.60294 3.94309 10.4423 4.70498 11.6738 3.71479L10.4206 2.15613ZM13.1233 2.28103C13.1195 2.27724 13.1146 2.27236 13.11 2.26776L11.704 3.69018C11.7035 3.68962 11.7033 3.68948 11.7042 3.69038C11.7052 3.69137 11.7066 3.69272 11.7091 3.69524L13.1233 2.28103ZM11.6985 3.69471C11.7012 3.69246 11.7027 3.69125 11.7038 3.69036C11.7048 3.68955 11.7046 3.68968 11.704 3.69018L10.4466 2.13492C10.4415 2.13904 10.4362 2.14341 10.432 2.1468L11.6985 3.69471ZM13.11 2.26776C12.3855 1.5517 11.2387 1.4945 10.4466 2.13492L11.704 3.69018V3.69018L13.11 2.26776ZM13.8532 5.56797C13.8566 5.56383 13.8609 5.55848 13.8651 5.55339L12.3098 4.29595C12.3103 4.29533 12.3104 4.29518 12.3096 4.29617C12.3087 4.29726 12.3075 4.29874 12.3053 4.3015L13.8532 5.56797ZM12.3047 4.29088C12.3072 4.2934 12.3086 4.29476 12.3096 4.29575C12.3105 4.29666 12.3104 4.29652 12.3098 4.29595L13.7322 2.89C13.7276 2.88534 13.7227 2.88046 13.7189 2.87667L12.3047 4.29088ZM13.8651 5.55339C14.5055 4.7613 14.4483 3.61444 13.7322 2.89L12.3098 4.29595V4.29595L13.8651 5.55339ZM13.8585 5.58087C13.852 5.58021 13.8479 5.57981 13.845 5.57951C13.8419 5.57919 13.8422 5.57922 13.8438 5.5794L13.6278 7.5677C13.6375 7.56875 13.6495 7.56994 13.6595 7.57094L13.8585 5.58087ZM12.3053 4.3015C12.2989 4.30926 12.2913 4.3186 12.2852 4.32618L13.8438 5.5794C13.8428 5.58068 13.8426 5.58091 13.8446 5.57848C13.8464 5.5762 13.849 5.57308 13.8532 5.56797L12.3053 4.3015ZM13.8438 5.5794V5.5794L12.2852 4.32618C11.295 5.5577 12.0569 7.39704 13.6278 7.5677L13.8438 5.5794ZM15.6667 7.57883C15.6667 7.57347 15.6667 7.56655 15.6666 7.55999L13.6667 7.57165C13.6667 7.57086 13.6667 7.57066 13.6667 7.57194C13.6667 7.57334 13.6667 7.57526 13.6667 7.57883H15.6667ZM13.6595 7.57094C13.6631 7.57129 13.665 7.57149 13.6664 7.57163C13.6677 7.57176 13.6675 7.57174 13.6667 7.57165L13.8773 5.58277C13.8708 5.58208 13.8639 5.5814 13.8585 5.58087L13.6595 7.57094ZM15.6666 7.55999C15.6607 6.54143 14.8902 5.69004 13.8773 5.58277L13.6667 7.57165V7.57165L15.6666 7.55999ZM13.8586 10.4191C13.8639 10.4186 13.8707 10.4179 13.8771 10.4172L13.6667 8.42835C13.6675 8.42826 13.6676 8.42825 13.6664 8.42837C13.665 8.42851 13.6631 8.4287 13.6596 8.42905L13.8586 10.4191ZM13.6667 8.42125C13.6667 8.42478 13.6667 8.42668 13.6667 8.42807C13.6667 8.42933 13.6667 8.42913 13.6667 8.42835L15.6666 8.43988C15.6667 8.43339 15.6667 8.42655 15.6667 8.42125H13.6667ZM13.8771 10.4172C14.8902 10.31 15.6608 9.45854 15.6666 8.43988L13.6667 8.42835L13.6667 8.42835L13.8771 10.4172ZM13.8533 10.4318C13.8492 10.4268 13.8467 10.4237 13.8448 10.4215C13.8429 10.4191 13.8431 10.4193 13.8441 10.4206L12.2856 11.674C12.2916 11.6815 12.2991 11.6907 12.3054 11.6983L13.8533 10.4318ZM13.6596 8.42905C13.6497 8.43004 13.6379 8.43122 13.6284 8.43225L13.8441 10.4206C13.8425 10.4208 13.8422 10.4208 13.8453 10.4205C13.8481 10.4202 13.8521 10.4198 13.8586 10.4191L13.6596 8.42905ZM13.8441 10.4206H13.8441L13.6284 8.43225C12.0571 8.60272 11.2951 10.4424 12.2856 11.674L13.8441 10.4206ZM13.7191 13.123C13.7228 13.1192 13.7276 13.1144 13.7321 13.1098L12.3098 11.7038C12.3104 11.7032 12.3105 11.7031 12.3096 11.7039C12.3087 11.7049 12.3073 11.7063 12.3048 11.7087L13.7191 13.123ZM12.3054 11.6983C12.3076 11.701 12.3088 11.7025 12.3097 11.7035C12.3104 11.7045 12.3103 11.7044 12.3098 11.7038L13.865 10.4462C13.8609 10.4412 13.8566 10.4359 13.8533 10.4318L12.3054 11.6983ZM13.7321 13.1098C14.4483 12.3854 14.5055 11.2383 13.865 10.4462L12.3098 11.7038V11.7038L13.7321 13.1098ZM10.432 13.8529C10.4362 13.8563 10.4415 13.8607 10.4466 13.8648L11.7041 12.3095C11.7047 12.31 11.7048 12.3102 11.7038 12.3093C11.7028 12.3085 11.7013 12.3072 11.6985 12.305L10.432 13.8529ZM11.7091 12.3045C11.7066 12.307 11.7052 12.3083 11.7043 12.3093C11.7034 12.3102 11.7035 12.3101 11.7041 12.3095L13.11 13.7319C13.1147 13.7273 13.1195 13.7225 13.1233 13.7187L11.7091 12.3045ZM10.4466 13.8648C11.2387 14.5052 12.3856 14.448 13.11 13.7319L11.7041 12.3095L10.4466 13.8648ZM10.4191 13.8584C10.4198 13.8518 10.4202 13.8477 10.4205 13.8448C10.4208 13.8416 10.4208 13.8419 10.4206 13.8436L8.43233 13.6276C8.43128 13.6373 8.43008 13.6493 8.42907 13.6594L10.4191 13.8584ZM11.6985 12.305C11.6908 12.2986 11.6814 12.291 11.6739 12.2849L10.4206 13.8436C10.4194 13.8425 10.4191 13.8423 10.4215 13.8443C10.4238 13.8462 10.4269 13.8487 10.432 13.8529L11.6985 12.305ZM10.4206 13.8436V13.8436L11.6739 12.2849C10.4423 11.2947 8.60297 12.0566 8.43233 13.6276L10.4206 13.8436ZM8.42109 15.6667C8.42651 15.6667 8.43351 15.6667 8.44015 15.6666L8.42835 13.6667C8.42915 13.6667 8.42935 13.6667 8.42806 13.6667C8.42664 13.6667 8.4247 13.6667 8.42109 13.6667V15.6667ZM8.42907 13.6594C8.42871 13.663 8.42852 13.6649 8.42837 13.6664C8.42824 13.6677 8.42826 13.6675 8.42835 13.6667L10.4172 13.8774C10.4179 13.8708 10.4186 13.8638 10.4191 13.8584L8.42907 13.6594ZM8.44015 15.6666C9.45861 15.6606 10.3099 14.8902 10.4172 13.8774L8.42835 13.6667L8.42835 13.6667L8.44015 15.6666ZM5.58087 13.8585C5.5814 13.8639 5.58208 13.8708 5.58277 13.8773L7.57165 13.6667C7.57174 13.6675 7.57176 13.6677 7.57163 13.6664C7.57149 13.665 7.5713 13.6631 7.57094 13.6595L5.58087 13.8585ZM7.57883 13.6667C7.57526 13.6667 7.57334 13.6667 7.57194 13.6667C7.57066 13.6667 7.57086 13.6667 7.57165 13.6667L7.55999 15.6666C7.56655 15.6667 7.57347 15.6667 7.57883 15.6667V13.6667ZM5.58277 13.8773C5.69003 14.8902 6.54143 15.6607 7.55999 15.6666L7.57165 13.6667H7.57165L5.58277 13.8773ZM5.56795 13.8532C5.57307 13.849 5.5762 13.8465 5.57848 13.8446C5.58092 13.8426 5.58068 13.8428 5.5794 13.8438L4.3262 12.2852C4.31861 12.2913 4.30926 12.2989 4.30148 12.3053L5.56795 13.8532ZM7.57094 13.6595C7.56994 13.6495 7.56875 13.6375 7.5677 13.6278L5.5794 13.8438C5.57922 13.8422 5.57919 13.8419 5.57951 13.845C5.57981 13.8479 5.58021 13.852 5.58087 13.8585L7.57094 13.6595ZM5.5794 13.8438L5.5794 13.8438L7.5677 13.6278C7.39703 12.0569 5.55771 11.295 4.3262 12.2852L5.5794 13.8438ZM2.87663 13.719C2.88043 13.7228 2.88532 13.7277 2.88998 13.7323L4.29592 12.3098C4.29649 12.3104 4.29663 12.3105 4.29572 12.3096C4.29473 12.3086 4.29337 12.3073 4.29085 12.3048L2.87663 13.719ZM4.30148 12.3053C4.29872 12.3075 4.29723 12.3088 4.29614 12.3096C4.29515 12.3105 4.2953 12.3103 4.29592 12.3098L5.55335 13.8651C5.55845 13.861 5.5638 13.8566 5.56795 13.8532L4.30148 12.3053ZM2.88998 13.7323C3.61442 14.4483 4.76126 14.5055 5.55335 13.8651L4.29592 12.3098L4.29592 12.3098L2.88998 13.7323ZM2.14678 10.432C2.14338 10.4362 2.139 10.4415 2.13488 10.4466L3.69015 11.7041C3.68965 11.7047 3.68952 11.7048 3.69033 11.7038C3.69122 11.7027 3.69243 11.7013 3.69469 11.6985L2.14678 10.432ZM3.69522 11.7091C3.6927 11.7066 3.69134 11.7052 3.69035 11.7043C3.68945 11.7034 3.68959 11.7035 3.69015 11.7041L2.26772 13.11C2.27232 13.1147 2.27722 13.1195 2.28101 13.1233L3.69522 11.7091ZM2.13488 10.4466C1.49448 11.2387 1.55168 12.3856 2.26772 13.11L3.69015 11.7041L3.69015 11.7041L2.13488 10.4466ZM2.14145 10.4191C2.14801 10.4198 2.15202 10.4202 2.15495 10.4205C2.15807 10.4208 2.15776 10.4208 2.15613 10.4206L2.37211 8.4323C2.36245 8.43125 2.35044 8.43006 2.34046 8.42906L2.14145 10.4191ZM3.69469 11.6985C3.70105 11.6907 3.7087 11.6814 3.71479 11.6738L2.15613 10.4206C2.15716 10.4193 2.15736 10.4191 2.15537 10.4215C2.15351 10.4238 2.15096 10.4269 2.14678 10.432L3.69469 11.6985ZM2.15613 10.4206H2.15613L3.71479 11.6738C4.70498 10.4423 3.94309 8.60294 2.37211 8.4323L2.15613 10.4206ZM0.333333 8.42119C0.333333 8.42654 0.333329 8.43344 0.333367 8.43999L2.33333 8.42835C2.33334 8.42914 2.33334 8.42934 2.33333 8.42807C2.33333 8.42666 2.33333 8.42475 2.33333 8.42119L0.333333 8.42119ZM2.34046 8.42906C2.33692 8.4287 2.33501 8.42851 2.33361 8.42837C2.33235 8.42824 2.33254 8.42826 2.33333 8.42835L2.12275 10.4172C2.12925 10.4179 2.13613 10.4186 2.14145 10.4191L2.34046 8.42906ZM0.333367 8.43999C0.339295 9.45857 1.10981 10.31 2.12275 10.4172L2.33333 8.42835L2.33333 8.42835L0.333367 8.43999ZM2.14153 5.58086C2.13615 5.5814 2.1292 5.58209 2.12261 5.58279L2.33333 7.57165C2.33254 7.57174 2.33233 7.57176 2.33362 7.57163C2.33503 7.57148 2.33696 7.57129 2.34054 7.57093L2.14153 5.58086ZM2.33333 7.5789C2.33333 7.5753 2.33333 7.57336 2.33333 7.57194C2.33334 7.57065 2.33334 7.57085 2.33333 7.57165L0.333368 7.55988C0.333329 7.5665 0.333333 7.57348 0.333333 7.5789L2.33333 7.5789ZM2.12261 5.58279C1.10978 5.69009 0.339363 6.5414 0.333368 7.55988L2.33333 7.57165H2.33333L2.12261 5.58279ZM2.14689 5.56778C2.15113 5.57296 2.15372 5.57613 2.15561 5.57844C2.15763 5.58091 2.15742 5.58067 2.15638 5.57937L3.71516 4.32631C3.709 4.31864 3.70125 4.30918 3.69481 4.30131L2.14689 5.56778ZM2.34054 7.57093C2.35063 7.56992 2.36278 7.56872 2.37255 7.56766L2.15638 5.57937C2.15803 5.57919 2.15834 5.57917 2.15519 5.57949C2.15223 5.57979 2.14817 5.58019 2.14153 5.58086L2.34054 7.57093ZM2.15638 5.57937H2.15638L2.37255 7.56766C3.94334 7.39687 4.70512 5.55778 3.71516 4.32631L2.15638 5.57937ZM2.28112 2.87629C2.27727 2.88013 2.2723 2.8851 2.26762 2.88983L3.69018 4.29565C3.68961 4.29622 3.68947 4.29637 3.69038 4.29545C3.69139 4.29444 3.69277 4.29306 3.69533 4.2905L2.28112 2.87629ZM3.69481 4.30131C3.69251 4.2985 3.69127 4.29698 3.69036 4.29587C3.68954 4.29486 3.68967 4.29502 3.69018 4.29565L2.13479 5.55294C2.13898 5.55812 2.14344 5.56356 2.14689 5.56778L3.69481 4.30131ZM2.26762 2.88983C1.55174 3.61424 1.49455 4.7609 2.13479 5.55294L3.69018 4.29565H3.69018L2.26762 2.88983ZM5.56804 2.14655C5.56386 2.14313 5.55848 2.13873 5.55338 2.1346L4.29595 3.68988C4.29533 3.68937 4.29517 3.68924 4.29618 3.69006C4.29728 3.69096 4.29878 3.69219 4.30156 3.69447L5.56804 2.14655ZM4.29088 3.69495C4.2934 3.69243 4.29476 3.69107 4.29575 3.69008C4.29666 3.68918 4.29652 3.68932 4.29595 3.68988L2.89001 2.26744C2.88535 2.27205 2.88046 2.27695 2.87666 2.28074L4.29088 3.69495ZM5.55338 2.1346C4.76129 1.49421 3.61445 1.55141 2.89001 2.26744L4.29595 3.68988L4.29595 3.68988L5.55338 2.1346ZM5.58088 2.14137C5.58023 2.14785 5.57983 2.15181 5.57954 2.15471C5.57923 2.15779 5.57925 2.15748 5.57943 2.15587L7.56775 2.37165C7.56879 2.3621 7.56996 2.35024 7.57095 2.34037L5.58088 2.14137ZM4.30156 3.69447C4.30929 3.70079 4.31856 3.70839 4.32605 3.71441L5.57943 2.15587C5.5807 2.1569 5.58094 2.1571 5.5785 2.15511C5.57623 2.15325 5.57312 2.15071 5.56804 2.14655L4.30156 3.69447ZM5.57943 2.15587H5.57943L4.32605 3.71441C5.55761 4.70483 7.39724 3.94283 7.56775 2.37165L5.57943 2.15587ZM8.42118 2.33333C8.42474 2.33333 8.42666 2.33333 8.42807 2.33334C8.42934 2.33334 8.42914 2.33334 8.42835 2.33333L8.43999 0.333367C8.43344 0.333329 8.42654 0.333333 8.42118 0.333333V2.33333ZM10.4191 2.14146C10.4186 2.13613 10.4179 2.12925 10.4172 2.12275L8.42835 2.33333C8.42826 2.33254 8.42824 2.33235 8.42837 2.33361C8.42851 2.33501 8.4287 2.33692 8.42906 2.34046L10.4191 2.14146ZM8.42835 2.33333V2.33333L10.4172 2.12275C10.31 1.10981 9.45857 0.339297 8.43999 0.333367L8.42835 2.33333ZM7.57873 0.333333C7.57344 0.333333 7.56662 0.333329 7.56015 0.333367L7.57165 2.33333C7.57087 2.33334 7.57067 2.33334 7.57193 2.33334C7.57332 2.33333 7.57521 2.33333 7.57873 2.33333V0.333333ZM7.57095 2.34037C7.5713 2.33687 7.57149 2.33499 7.57163 2.33361C7.57175 2.33236 7.57174 2.33255 7.57165 2.33333L5.58276 2.12288C5.58208 2.12931 5.5814 2.1361 5.58088 2.14137L7.57095 2.34037ZM7.56015 0.333367C6.54146 0.339225 5.68995 1.10983 5.58276 2.12288L7.57165 2.33333L7.57165 2.33333L7.56015 0.333367Z" fill="#979797" mask="url(#path-1-outside-1_1_61)"/>
<path d="M10.3323 5.66146L5.6656 10.3281" stroke="white"/>
<circle cx="6.05448" cy="6.43924" r="1.05556" stroke="white"/>
<circle cx="9.94337" cy="9.55035" r="1.05556" stroke="white"/>
</svg>
