<svg width="16" height="16" viewBox="0 0 16 16" fill="none" xmlns="http://www.w3.org/2000/svg">
<path fill-rule="evenodd" clip-rule="evenodd" d="M14 4H2V6C2.73638 6 3.33333 6.59695 3.33333 7.33333V9.33333C3.33333 10.8878 3.33333 11.6651 3.61441 12.2679C3.91249 12.9071 4.42625 13.4208 5.06548 13.7189C5.66825 14 6.4455 14 8 14C9.5545 14 10.3318 14 10.9345 13.7189C11.5737 13.4208 12.0875 12.9071 12.3856 12.2679C12.6667 11.6651 12.6667 10.8878 12.6667 9.33333V7.33333C12.6667 6.59695 13.2636 6 14 6V4ZM7.33333 7.33333C7.33333 6.78105 6.88562 6.33333 6.33333 6.33333C5.78105 6.33333 5.33333 6.78105 5.33333 7.33333V10.6667C5.33333 11.219 5.78105 11.6667 6.33333 11.6667C6.88562 11.6667 7.33333 11.219 7.33333 10.6667V7.33333ZM10.6667 7.33333C10.6667 6.78105 10.219 6.33333 9.66667 6.33333C9.11438 6.33333 8.66667 6.78105 8.66667 7.33333V10.6667C8.66667 11.219 9.11438 11.6667 9.66667 11.6667C10.219 11.6667 10.6667 11.219 10.6667 10.6667V7.33333Z" fill="#E60E00"/>
<path d="M6.7108 2.24706C6.78676 2.17618 6.95416 2.11355 7.18702 2.06888C7.41987 2.02421 7.70519 2 7.9987 2C8.29221 2 8.57752 2.02421 8.81038 2.06888C9.04324 2.11355 9.21063 2.17618 9.2866 2.24706" stroke="#E60E00" stroke-width="2" stroke-linecap="round"/>
</svg>
