<svg width="40" height="38" viewBox="0 0 40 38" fill="none" xmlns="http://www.w3.org/2000/svg">
<rect x="0.800781" width="38.95" height="38" rx="10" fill="#5E92C6"/>
<path fill-rule="evenodd" clip-rule="evenodd" d="M19.9113 26.7143C19.1832 26.7143 18.5934 26.1389 18.5934 25.4286C18.5934 24.7182 19.1832 24.1429 19.9113 24.1429C20.6394 24.1429 21.2291 24.7182 21.2291 25.4286C21.2291 26.1389 20.6394 26.7143 19.9113 26.7143ZM29.1363 24.7857H22.4541C22.1582 23.6504 21.1105 22.8571 19.9113 22.8571C18.712 22.8571 17.6643 23.6504 17.3685 24.7857H10.6863C10.3232 24.7857 10.0273 25.0744 10.0273 25.4286C10.0273 25.7828 10.3232 26.0714 10.6863 26.0714H17.3685C17.6643 27.2067 18.712 28 19.9113 28C21.1105 28 22.1582 27.2067 22.4541 26.0714H29.1363C29.4993 26.0714 29.7952 25.7828 29.7952 25.4286C29.7952 25.0744 29.4993 24.7857 29.1363 24.7857ZM26.5006 20.2857C25.7724 20.2857 25.1827 19.7104 25.1827 19C25.1827 18.2896 25.7724 17.7143 26.5006 17.7143C27.2287 17.7143 27.8184 18.2896 27.8184 19C27.8184 19.7104 27.2287 20.2857 26.5006 20.2857ZM29.1363 18.3571H29.0434C28.7475 17.2219 27.6998 16.4286 26.5006 16.4286C25.3013 16.4286 24.2536 17.2219 23.9578 18.3571H10.6863C10.3232 18.3571 10.0273 18.6458 10.0273 19C10.0273 19.3542 10.3232 19.6429 10.6863 19.6429H23.9578C24.2536 20.7781 25.3013 21.5714 26.5006 21.5714C27.6998 21.5714 28.7475 20.7781 29.0434 19.6429H29.1363C29.4993 19.6429 29.7952 19.3542 29.7952 19C29.7952 18.6458 29.4993 18.3571 29.1363 18.3571ZM13.322 11.2857C14.0501 11.2857 14.6398 11.8611 14.6398 12.5714C14.6398 13.2818 14.0501 13.8571 13.322 13.8571C12.5939 13.8571 12.0041 13.2818 12.0041 12.5714C12.0041 11.8611 12.5939 11.2857 13.322 11.2857ZM10.6863 13.2143H10.7792C11.075 14.3496 12.1227 15.1429 13.322 15.1429C14.5212 15.1429 15.5689 14.3496 15.8648 13.2143H29.1363C29.4993 13.2143 29.7952 12.9256 29.7952 12.5714C29.7952 12.2172 29.4993 11.9286 29.1363 11.9286H15.8648C15.5689 10.7933 14.5212 10 13.322 10C12.1227 10 11.075 10.7933 10.7792 11.9286H10.6863C10.3232 11.9286 10.0273 12.2172 10.0273 12.5714C10.0273 12.9256 10.3232 13.2143 10.6863 13.2143Z" fill="#E8F1FF"/>
</svg>
