<svg width="24" height="25" viewBox="0 0 24 25" fill="none" xmlns="http://www.w3.org/2000/svg">
<path fill-rule="evenodd" clip-rule="evenodd" d="M14.2692 3.48603C13.5624 3.21456 12.7963 3.06641 11.9987 3.06641C8.77002 3.06641 6.05767 5.49408 5.70112 8.703L5.44932 10.9692L5.44317 11.0242C5.32631 12.0425 4.99484 13.0245 4.47063 13.9053L4.44223 13.9528L3.86419 14.9162L3.84477 14.9485C3.59909 15.358 3.38603 15.713 3.24575 16.0109C3.10365 16.3126 2.97202 16.6819 3.03627 17.0892C3.1022 17.507 3.31725 17.8868 3.64164 18.1584C3.95776 18.423 4.34219 18.5001 4.67404 18.5335C5.00162 18.5664 5.41571 18.5664 5.89318 18.5664L5.93092 18.5664H18.0665L18.1042 18.5664C18.5817 18.5664 18.9958 18.5664 19.3234 18.5335C19.6552 18.5001 20.0396 18.423 20.3557 18.1584C20.6801 17.8868 20.8952 17.507 20.9611 17.0892C21.0254 16.6819 20.8937 16.3126 20.7516 16.0109C20.6114 15.713 20.3983 15.358 20.1527 14.9486L20.1526 14.9486L20.1332 14.9162L19.5552 13.9528L19.5268 13.9053C19.1319 13.2419 18.8464 12.521 18.6796 11.7704C18.457 11.8007 18.2297 11.8164 17.9987 11.8164C17.7075 11.8164 17.4222 11.7915 17.1446 11.7438C17.33 12.7762 17.6998 13.7685 18.2377 14.6725L18.2689 14.7245L18.847 15.6879C19.1176 16.1391 19.2904 16.4288 19.3946 16.65C19.4586 16.7858 19.4735 16.8501 19.4769 16.8691C19.4662 16.9188 19.4405 16.9641 19.4035 16.9988C19.3854 17.0057 19.3226 17.026 19.1732 17.041C18.93 17.0655 18.5926 17.0664 18.0665 17.0664H5.93092C5.40478 17.0664 5.06742 17.0655 4.82419 17.041C4.67478 17.026 4.61199 17.0057 4.59394 16.9988C4.55685 16.9641 4.53123 16.9188 4.52051 16.8691C4.52392 16.8501 4.5388 16.7858 4.60278 16.65C4.70694 16.4288 4.87974 16.1391 5.15043 15.6879L5.72847 14.7245L5.75964 14.6725C6.39231 13.6094 6.79235 12.4242 6.93339 11.1952L6.94015 11.1349L7.19195 8.86865C7.46409 6.41937 9.53435 4.56641 11.9987 4.56641C12.4956 4.56641 12.9765 4.64175 13.4299 4.78213C13.6421 4.30619 13.9265 3.86952 14.2692 3.48603ZM16.7727 5.23612C16.333 5.5777 16.0397 6.0987 16.0027 6.68921C16.3387 7.18441 16.586 7.74672 16.7204 8.35463C17.067 8.64298 17.5126 8.81641 17.9987 8.81641C18.1033 8.81641 18.206 8.80838 18.3063 8.7929L18.2963 8.703C18.1487 7.37454 17.5973 6.17997 16.7727 5.23612Z" fill="#33363F"/>
<path d="M9.10222 18.4811C9.27315 19.4379 9.64978 20.2835 10.1737 20.8865C10.6976 21.4895 11.3396 21.8164 12 21.8164C12.6604 21.8164 13.3024 21.4895 13.8263 20.8865C14.3502 20.2835 14.7269 19.4379 14.8978 18.4811" stroke="#33363F" stroke-width="1.5" stroke-linecap="round"/>
<circle cx="16.75" cy="7.56641" r="2.25" fill="#5E92C6" stroke="#5E92C6"/>
</svg>
