<svg width="15" height="18" viewBox="0 0 15 18" fill="none" xmlns="http://www.w3.org/2000/svg">
<path d="M14.1916 2.125V15.875C14.1916 16.2397 14.0575 16.5894 13.8187 16.8473C13.58 17.1051 13.2562 17.25 12.9185 17.25H9.73575C9.39811 17.25 9.07429 17.1051 8.83554 16.8473C8.59678 16.5894 8.46265 16.2397 8.46265 15.875V2.125C8.46265 1.76033 8.59678 1.41059 8.83554 1.15273C9.07429 0.894866 9.39811 0.75 9.73575 0.75H12.9185C13.2562 0.75 13.58 0.894866 13.8187 1.15273C14.0575 1.41059 14.1916 1.76033 14.1916 2.125ZM4.64335 0.75H1.4606C1.12295 0.75 0.799135 0.894866 0.560382 1.15273C0.32163 1.41059 0.1875 1.76033 0.1875 2.125V15.875C0.1875 16.2397 0.32163 16.5894 0.560382 16.8473C0.799135 17.1051 1.12295 17.25 1.4606 17.25H4.64335C4.981 17.25 5.30482 17.1051 5.54357 16.8473C5.78232 16.5894 5.91645 16.2397 5.91645 15.875V2.125C5.91645 1.76033 5.78232 1.41059 5.54357 1.15273C5.30482 0.894866 4.981 0.75 4.64335 0.75Z" fill="#8D8D8D"/>
</svg>
