<svg width="22" height="22" viewBox="0 0 22 22" fill="none" xmlns="http://www.w3.org/2000/svg">
<path d="M17.7465 15.5835C18.4303 16.0015 18.7904 16.4758 18.7904 16.9585C18.7904 17.4412 18.4303 17.9154 17.7465 18.3335C17.0626 18.7515 16.079 19.0987 14.8945 19.3401C13.71 19.5814 12.3664 19.7085 10.9987 19.7085C9.63098 19.7085 8.28735 19.5814 7.10287 19.3401C5.91838 19.0987 4.93478 18.7515 4.25092 18.3335C3.56706 17.9154 3.20703 17.4412 3.20703 16.9585C3.20703 16.4758 3.56705 16.0015 4.25092 15.5835" stroke="#5E92C6" stroke-linecap="round"/>
<path d="M17.875 9.1665C17.875 13.7281 12.9273 16.8173 11.4265 17.6494C11.1588 17.7978 10.8412 17.7978 10.5735 17.6494C9.07272 16.8173 4.125 13.7281 4.125 9.1665C4.125 5.0415 7.45617 2.2915 11 2.2915C14.6667 2.2915 17.875 5.0415 17.875 9.1665Z" stroke="#5E92C6"/>
<circle cx="10.9987" cy="9.16667" r="3.16667" fill="#5E92C6" stroke="#5E92C6"/>
</svg>
