<svg width="12" height="12" viewBox="0 0 12 12" fill="none" xmlns="http://www.w3.org/2000/svg">
<path fill-rule="evenodd" clip-rule="evenodd" d="M6.5862 0.373287L7.9224 3.05709C8.0208 3.25149 8.208 3.38769 8.4258 3.42009L11.424 3.85629C11.5992 3.88209 11.7588 3.97329 11.8644 4.11369C11.9724 4.25469 12.0168 4.43049 11.991 4.60389C11.97 4.74669 11.9016 4.88049 11.799 4.98129L9.6258 7.08609C9.4668 7.23609 9.3942 7.45149 9.4314 7.66449L9.9684 10.6273C10.0266 10.9813 9.7902 11.3161 9.4314 11.3887C9.2862 11.4121 9.1362 11.3887 9.0048 11.3209L6.3282 9.92649C6.129 9.82569 5.895 9.82569 5.6982 9.92649L3.0216 11.3209C2.6904 11.4967 2.2788 11.3749 2.1 11.0515C2.0328 10.9225 2.0094 10.7749 2.0304 10.6321L2.5662 7.66929C2.6046 7.45869 2.532 7.24029 2.3724 7.09029L0.1992 4.98789C0.0732 4.86369 0 4.69509 0 4.51929C0 4.34349 0.0732 4.17489 0.1992 4.05069C0.3024 3.94749 0.438 3.87969 0.5862 3.86109L3.5844 3.42489C3.8016 3.39189 3.9888 3.25869 4.0854 3.06189L5.3766 0.373287C5.4888 0.145887 5.7258 0.000686573 5.9862 0.00548657H6.066C6.291 0.0336866 6.4878 0.171687 6.5862 0.373287Z" fill="#FCCB40"/>
<path fill-rule="evenodd" clip-rule="evenodd" d="M6.00465 9.84631C5.88705 9.84631 5.77725 9.88591 5.67165 9.93751L3.00465 11.3277C2.68365 11.4891 2.27805 11.3601 2.10225 11.0511C2.03445 10.9245 2.00865 10.7793 2.03205 10.6359L2.56845 7.68091C2.60385 7.46491 2.53125 7.24951 2.37405 7.09711L0.19665 4.99231C-0.06555 4.73491 -0.06555 4.31491 0.19665 4.05511C0.29985 3.95431 0.43365 3.88831 0.57645 3.86731L3.58605 3.42451C3.81525 3.39151 3.98205 3.26311 4.08705 3.06151L5.39505 0.34231C5.49345 0.12211 5.82885 -0.0302901 6.00945 0.00510993C6.00465 0.18571 6.00465 9.72691 6.00465 9.84631Z" fill="#FAC025"/>
</svg>
