<svg width="35" height="35" viewBox="0 0 35 35" fill="none" xmlns="http://www.w3.org/2000/svg">
<path d="M35 17.5005C35 26.3389 28.4478 33.6457 19.9367 34.8317C19.1406 34.9426 18.3263 35 17.5 35C16.5457 35 15.6095 34.9234 14.6965 34.7763C6.36473 33.4351 0 26.2099 0 17.4995C0 7.83477 7.835 0 17.5 0C27.165 0 35 7.83477 35 17.4995V17.5005Z" fill="black"/>
<path d="M26.4807 13.8571V17.2006C25.8952 17.1442 25.1374 17.0112 24.296 16.7028C23.1986 16.3008 22.3813 15.7506 21.8472 15.3243V22.0839L21.8341 22.0627C21.8432 22.1967 21.8472 22.3328 21.8472 22.4708C21.8472 25.8284 19.1163 28.5603 15.7576 28.5603C12.3989 28.5603 9.66797 25.8274 9.66797 22.4708C9.66797 19.1142 12.3989 16.3804 15.7576 16.3804C16.0861 16.3804 16.4086 16.4066 16.724 16.4569V19.7531C16.4207 19.6443 16.0962 19.5858 15.7576 19.5858C14.1674 19.5858 12.8725 20.8797 12.8725 22.4708C12.8725 24.062 14.1674 25.3558 15.7576 25.3558C17.3478 25.3558 18.6427 24.061 18.6427 22.4708C18.6427 22.4114 18.6417 22.3519 18.6376 22.2925V9.15625H21.9802C21.9923 9.43941 22.0044 9.72459 22.0155 10.0077C22.0377 10.565 22.2362 11.1001 22.5818 11.5384C22.988 12.0534 23.5865 12.6519 24.429 13.1296C25.217 13.576 25.9567 13.7674 26.4807 13.8581V13.8571Z" fill="#FF004F"/>
<path d="M25.3323 11.1403V14.4838C24.7468 14.4274 23.989 14.2944 23.1475 13.986C22.0501 13.584 21.2329 13.0338 20.6988 12.6075V19.3671L20.6857 19.3459C20.6948 19.4799 20.6988 19.616 20.6988 19.754C20.6988 23.1116 17.9679 25.8435 14.6092 25.8435C11.2504 25.8435 8.51953 23.1106 8.51953 19.754C8.51953 16.3974 11.2504 13.6636 14.6092 13.6636C14.9377 13.6636 15.2601 13.6898 15.5756 13.7401V17.0363C15.2722 16.9275 14.9477 16.869 14.6092 16.869C13.019 16.869 11.7241 18.1629 11.7241 19.754C11.7241 21.3452 13.019 22.639 14.6092 22.639C16.1993 22.639 17.4942 21.3442 17.4942 19.754C17.4942 19.6946 17.4932 19.6351 17.4892 19.5757V6.43945H20.8318C20.8439 6.72261 20.856 7.00779 20.8671 7.29095C20.8892 7.8482 21.0878 8.38328 21.4334 8.82163C21.8395 9.33655 22.4381 9.93512 23.2806 10.4128C24.0686 10.8592 24.8083 11.0506 25.3323 11.1413V11.1403Z" fill="#00F7EF"/>
<path d="M26.0627 12.6013V15.9448C25.4773 15.8883 24.7194 15.7553 23.878 15.447C22.7806 15.0449 21.9634 14.4947 21.4293 14.0684V20.828L21.4162 20.8068C21.4252 20.9409 21.4293 21.0769 21.4293 21.215C21.4293 24.5726 18.6983 27.3044 15.3396 27.3044C11.9809 27.3044 9.25 24.5716 9.25 21.215C9.25 17.8584 11.9809 15.1245 15.3396 15.1245C15.6681 15.1245 15.9906 15.1507 16.306 15.2011V18.4972C16.0027 18.3884 15.6782 18.33 15.3396 18.33C13.7494 18.33 12.4545 19.6238 12.4545 21.215C12.4545 22.8061 13.7494 24.1 15.3396 24.1C16.9298 24.1 18.2247 22.8051 18.2247 21.215C18.2247 21.1555 18.2237 21.0961 18.2197 21.0366V7.90039H21.5623C21.5744 8.18355 21.5865 8.46873 21.5975 8.75189C21.6197 9.30914 21.8182 9.84422 22.1639 10.2826C22.57 10.7975 23.1686 11.3961 24.011 11.8737C24.7991 12.3201 25.5387 12.5116 26.0627 12.6023V12.6013Z" fill="white"/>
</svg>
