<svg width="36" height="31" viewBox="0 0 36 31" fill="none" xmlns="http://www.w3.org/2000/svg">
<path d="M18.8939 7.90136L18.8014 7.87377C18.5251 7.79137 18.3675 7.5008 18.45 7.22421L18.8939 7.90136ZM18.8939 7.90136L18.901 7.89327M18.8939 7.90136L18.901 7.89327M18.901 7.89327C19.1453 7.91701 19.3791 7.765 19.4511 7.52197C20.038 5.55008 21.8874 4.17203 23.9475 4.17203C24.2359 4.17203 24.4698 3.93811 24.4698 3.64969C24.4698 3.36125 24.2359 3.12734 23.9475 3.12734C21.3421 3.12734 19.153 4.862 18.45 7.22412L18.901 7.89327Z" fill="#5E92C6" stroke="#F9FFF9" stroke-width="0.3"/>
<path d="M29.1626 21.8955H26.9286C26.723 21.8955 26.5562 21.7287 26.5562 21.5231C26.5562 21.3175 26.723 21.1508 26.9286 21.1508H29.1626C32.242 21.1508 34.7476 18.6452 34.7476 15.5657C34.7476 12.4862 32.242 9.98061 29.1626 9.98061H29.1088C29.0009 9.98061 28.8982 9.9338 28.8275 9.85215C28.7567 9.7705 28.7248 9.66225 28.7402 9.55534C28.7735 9.32343 28.7902 9.09045 28.7902 8.8636C28.7902 6.19473 26.6187 4.02316 23.9498 4.02316C22.9115 4.02316 21.9213 4.34762 21.0862 4.96171C20.9027 5.09655 20.6421 5.03671 20.5359 4.83485C18.1708 0.331159 11.9933 -0.273641 8.79058 3.64418C7.44141 5.29469 6.9113 7.44176 7.33608 9.53435C7.38289 9.76546 7.20603 9.98089 6.97119 9.98089H6.82199C3.7425 9.98089 1.2369 12.4865 1.2369 15.566C1.2369 18.6455 3.7425 21.1511 6.82199 21.1511H9.05599C9.26157 21.1511 9.42834 21.3178 9.42834 21.5234C9.42834 21.729 9.26158 21.8957 9.05599 21.8957H6.82199C3.33181 21.8957 0.492188 19.0561 0.492188 15.5659C0.492188 12.1737 3.1746 9.39602 6.5297 9.24282C6.21454 7.0718 6.8172 4.88191 8.21398 3.17291C11.643 -1.02202 18.2143 -0.551822 20.9922 4.12582C21.8784 3.57024 22.8924 3.27878 23.9497 3.27878C27.1832 3.27878 29.7454 6.03091 29.5212 9.2463C32.8454 9.43273 35.4922 12.1957 35.4922 15.5657C35.4922 19.0561 32.6526 21.8955 29.1624 21.8955L29.1626 21.8955Z" fill="#5E92C6"/>
<path d="M8.48281 21.3125C8.48281 26.5281 12.7258 30.7711 17.9414 30.7711C23.157 30.7711 27.4 26.5281 27.4 21.3125C27.4 16.0969 23.157 11.8539 17.9414 11.8539C12.7258 11.8539 8.48281 16.0969 8.48281 21.3125ZM9.52766 21.3125C9.52766 16.6734 13.3022 12.8988 17.9414 12.8988C22.5805 12.8988 26.3551 16.6733 26.3551 21.3125C26.3551 25.9516 22.5805 29.7262 17.9414 29.7262C13.3023 29.7262 9.52766 25.9517 9.52766 21.3125Z" fill="#5E92C6" stroke="#F9FFF9" stroke-width="0.3"/>
<path d="M17.6898 25.0613C17.6898 25.2946 17.8791 25.4839 18.1124 25.4839C18.3457 25.4839 18.535 25.2949 18.535 25.0613V17.9738C18.535 17.7404 18.3458 17.5512 18.1124 17.5512C17.8791 17.5512 17.6898 17.7404 17.6898 17.9738V25.0613Z" fill="#5E92C6" stroke="#5E92C6" stroke-width="0.3"/>
<path d="M18.1135 18.5715L16.2317 20.4533L18.1135 18.5715ZM18.1135 18.5715L19.9955 20.4534C20.0779 20.5358 20.1864 20.5771 20.2943 20.5771L18.1135 18.5715ZM20.5932 20.4533C20.7582 20.2882 20.7582 20.0208 20.5931 19.8557L18.4124 17.675C18.2474 17.51 17.9797 17.5098 17.8147 17.675L20.5931 20.4534C20.5931 20.4533 20.5932 20.4533 20.5932 20.4533ZM20.5932 20.4533C20.5106 20.5362 20.4019 20.5771 20.2943 20.5771L20.5933 20.4532C20.5933 20.4532 20.5932 20.4532 20.5932 20.4533Z" fill="#5E92C6" stroke="#5E92C6" stroke-width="0.3"/>
</svg>
